G04 (created by PCBNEW (25-Oct-2014 BZR 4029)-stable) date Tue 03 Feb 2015 19:56:06 CET*
%MOIN*%
G04 Gerber Fmt 3.4, Leading zero omitted, Abs format*
%FSLAX34Y34*%
G01*
G70*
G90*
G04 APERTURE LIST*
%ADD10C,0.006*%
%ADD11C,0.0039*%
%ADD12C,0.012*%
%ADD13C,0.0059*%
%ADD14C,0.005*%
%ADD15C,0.0125*%
%ADD16C,0.0043*%
%ADD17C,0.008*%
%ADD18C,0.01*%
%ADD19C,0.0108*%
G04 APERTURE END LIST*
G54D10*
G54D11*
X38883Y-28720D02*
G75*
G03X38883Y-28720I-50J0D01*
G74*
G01*
X38833Y-29170D02*
X38833Y-28770D01*
X38833Y-28770D02*
X39433Y-28770D01*
X39433Y-28770D02*
X39433Y-29170D01*
X39433Y-29570D02*
X39433Y-29970D01*
X39433Y-29970D02*
X38833Y-29970D01*
X38833Y-29970D02*
X38833Y-29570D01*
X32584Y-32775D02*
G75*
G03X32584Y-32775I-50J0D01*
G74*
G01*
X32534Y-33225D02*
X32534Y-32825D01*
X32534Y-32825D02*
X33134Y-32825D01*
X33134Y-32825D02*
X33134Y-33225D01*
X33134Y-33625D02*
X33134Y-34025D01*
X33134Y-34025D02*
X32534Y-34025D01*
X32534Y-34025D02*
X32534Y-33625D01*
X34557Y-29197D02*
G75*
G03X34557Y-29197I-50J0D01*
G74*
G01*
X34957Y-29197D02*
X34557Y-29197D01*
X34557Y-29197D02*
X34557Y-28597D01*
X34557Y-28597D02*
X34957Y-28597D01*
X35357Y-28597D02*
X35757Y-28597D01*
X35757Y-28597D02*
X35757Y-29197D01*
X35757Y-29197D02*
X35357Y-29197D01*
X38376Y-34059D02*
G75*
G03X38376Y-34059I-50J0D01*
G74*
G01*
X38776Y-34059D02*
X38376Y-34059D01*
X38376Y-34059D02*
X38376Y-33459D01*
X38376Y-33459D02*
X38776Y-33459D01*
X39176Y-33459D02*
X39576Y-33459D01*
X39576Y-33459D02*
X39576Y-34059D01*
X39576Y-34059D02*
X39176Y-34059D01*
X32269Y-29231D02*
G75*
G03X32269Y-29231I-50J0D01*
G74*
G01*
X32219Y-29681D02*
X32219Y-29281D01*
X32219Y-29281D02*
X32819Y-29281D01*
X32819Y-29281D02*
X32819Y-29681D01*
X32819Y-30081D02*
X32819Y-30481D01*
X32819Y-30481D02*
X32219Y-30481D01*
X32219Y-30481D02*
X32219Y-30081D01*
X32869Y-27775D02*
G75*
G03X32869Y-27775I-50J0D01*
G74*
G01*
X32819Y-27325D02*
X32819Y-27725D01*
X32819Y-27725D02*
X32219Y-27725D01*
X32219Y-27725D02*
X32219Y-27325D01*
X32219Y-26925D02*
X32219Y-26525D01*
X32219Y-26525D02*
X32819Y-26525D01*
X32819Y-26525D02*
X32819Y-26925D01*
G54D12*
X31905Y-31153D02*
X31905Y-37153D01*
X31905Y-37153D02*
X29905Y-37153D01*
X29905Y-37153D02*
X29905Y-31153D01*
X29905Y-31153D02*
X31905Y-31153D01*
X33220Y-25929D02*
X39220Y-25929D01*
X39220Y-25929D02*
X39220Y-27929D01*
X39220Y-27929D02*
X33220Y-27929D01*
X33220Y-27929D02*
X33220Y-25929D01*
X42141Y-27511D02*
X42141Y-33511D01*
X42141Y-33511D02*
X40141Y-33511D01*
X40141Y-33511D02*
X40141Y-27511D01*
X40141Y-27511D02*
X42141Y-27511D01*
X33122Y-35417D02*
X39122Y-35417D01*
X39122Y-35417D02*
X39122Y-37417D01*
X39122Y-37417D02*
X33122Y-37417D01*
X33122Y-37417D02*
X33122Y-35417D01*
G54D13*
X34783Y-29980D02*
X34704Y-30059D01*
X34704Y-30137D02*
X34861Y-29980D01*
X34940Y-29980D02*
X34704Y-30216D01*
X34704Y-30295D02*
X35019Y-29980D01*
X34704Y-30374D02*
X34704Y-29980D01*
X34704Y-29980D02*
X35098Y-29980D01*
X35098Y-29980D02*
X34704Y-30374D01*
X35098Y-33208D02*
X34704Y-33208D01*
X34704Y-33208D02*
X34704Y-32814D01*
X37932Y-32814D02*
X37932Y-33208D01*
X37932Y-33208D02*
X37538Y-33208D01*
X37538Y-29980D02*
X37932Y-29980D01*
X37932Y-29980D02*
X37932Y-30374D01*
G54D14*
X35480Y-30644D02*
G75*
G03X35480Y-30644I-111J0D01*
G74*
G01*
X35068Y-32994D02*
X34918Y-32844D01*
X34918Y-32844D02*
X34918Y-30344D01*
X34918Y-30344D02*
X35068Y-30194D01*
X35068Y-30194D02*
X37568Y-30194D01*
X37568Y-30194D02*
X37718Y-30344D01*
X37718Y-30344D02*
X37718Y-32844D01*
X37718Y-32844D02*
X37568Y-32994D01*
X37568Y-32994D02*
X35068Y-32994D01*
G54D15*
X29905Y-27293D02*
X29905Y-29793D01*
X31905Y-27293D02*
X31905Y-29793D01*
X30905Y-30793D02*
G75*
G03X31905Y-29793I0J1000D01*
G74*
G01*
X29905Y-29793D02*
G75*
G03X30905Y-30793I1000J0D01*
G74*
G01*
X31905Y-27293D02*
G75*
G03X30905Y-26293I-1000J0D01*
G74*
G01*
X30905Y-26293D02*
G75*
G03X29905Y-27293I0J-1000D01*
G74*
G01*
G54D16*
X39319Y-29402D02*
X39329Y-29412D01*
X39338Y-29440D01*
X39338Y-29459D01*
X39329Y-29487D01*
X39310Y-29506D01*
X39291Y-29515D01*
X39254Y-29524D01*
X39226Y-29524D01*
X39188Y-29515D01*
X39169Y-29506D01*
X39150Y-29487D01*
X39141Y-29459D01*
X39141Y-29440D01*
X39150Y-29412D01*
X39160Y-29402D01*
X39338Y-29215D02*
X39338Y-29327D01*
X39338Y-29271D02*
X39141Y-29271D01*
X39169Y-29290D01*
X39188Y-29309D01*
X39197Y-29327D01*
X38623Y-29635D02*
X38623Y-29748D01*
X38623Y-29691D02*
X38426Y-29691D01*
X38454Y-29710D01*
X38472Y-29729D01*
X38482Y-29748D01*
X38426Y-29513D02*
X38426Y-29494D01*
X38435Y-29476D01*
X38444Y-29466D01*
X38463Y-29457D01*
X38501Y-29447D01*
X38547Y-29447D01*
X38585Y-29457D01*
X38604Y-29466D01*
X38613Y-29476D01*
X38623Y-29494D01*
X38623Y-29513D01*
X38613Y-29532D01*
X38604Y-29541D01*
X38585Y-29551D01*
X38547Y-29560D01*
X38501Y-29560D01*
X38463Y-29551D01*
X38444Y-29541D01*
X38435Y-29532D01*
X38426Y-29513D01*
X38426Y-29326D02*
X38426Y-29307D01*
X38435Y-29288D01*
X38444Y-29279D01*
X38463Y-29269D01*
X38501Y-29260D01*
X38547Y-29260D01*
X38585Y-29269D01*
X38604Y-29279D01*
X38613Y-29288D01*
X38623Y-29307D01*
X38623Y-29326D01*
X38613Y-29344D01*
X38604Y-29354D01*
X38585Y-29363D01*
X38547Y-29372D01*
X38501Y-29372D01*
X38463Y-29363D01*
X38444Y-29354D01*
X38435Y-29344D01*
X38426Y-29326D01*
X38491Y-29175D02*
X38623Y-29175D01*
X38510Y-29175D02*
X38501Y-29166D01*
X38491Y-29147D01*
X38491Y-29119D01*
X38501Y-29100D01*
X38519Y-29091D01*
X38623Y-29091D01*
X38519Y-28932D02*
X38519Y-28997D01*
X38623Y-28997D02*
X38426Y-28997D01*
X38426Y-28903D01*
X33020Y-33458D02*
X33030Y-33467D01*
X33039Y-33495D01*
X33039Y-33514D01*
X33030Y-33542D01*
X33011Y-33561D01*
X32992Y-33570D01*
X32954Y-33579D01*
X32926Y-33579D01*
X32889Y-33570D01*
X32870Y-33561D01*
X32851Y-33542D01*
X32842Y-33514D01*
X32842Y-33495D01*
X32851Y-33467D01*
X32861Y-33458D01*
X32861Y-33382D02*
X32851Y-33373D01*
X32842Y-33354D01*
X32842Y-33307D01*
X32851Y-33289D01*
X32861Y-33279D01*
X32879Y-33270D01*
X32898Y-33270D01*
X32926Y-33279D01*
X33039Y-33392D01*
X33039Y-33270D01*
X33386Y-33651D02*
X33386Y-33763D01*
X33386Y-33707D02*
X33189Y-33707D01*
X33217Y-33726D01*
X33236Y-33745D01*
X33246Y-33763D01*
X33189Y-33529D02*
X33189Y-33510D01*
X33199Y-33491D01*
X33208Y-33482D01*
X33227Y-33473D01*
X33264Y-33463D01*
X33311Y-33463D01*
X33349Y-33473D01*
X33368Y-33482D01*
X33377Y-33491D01*
X33386Y-33510D01*
X33386Y-33529D01*
X33377Y-33548D01*
X33368Y-33557D01*
X33349Y-33566D01*
X33311Y-33576D01*
X33264Y-33576D01*
X33227Y-33566D01*
X33208Y-33557D01*
X33199Y-33548D01*
X33189Y-33529D01*
X33189Y-33341D02*
X33189Y-33323D01*
X33199Y-33304D01*
X33208Y-33294D01*
X33227Y-33285D01*
X33264Y-33276D01*
X33311Y-33276D01*
X33349Y-33285D01*
X33368Y-33294D01*
X33377Y-33304D01*
X33386Y-33323D01*
X33386Y-33341D01*
X33377Y-33360D01*
X33368Y-33369D01*
X33349Y-33379D01*
X33311Y-33388D01*
X33264Y-33388D01*
X33227Y-33379D01*
X33208Y-33369D01*
X33199Y-33360D01*
X33189Y-33341D01*
X33255Y-33191D02*
X33386Y-33191D01*
X33274Y-33191D02*
X33264Y-33182D01*
X33255Y-33163D01*
X33255Y-33135D01*
X33264Y-33116D01*
X33283Y-33107D01*
X33386Y-33107D01*
X33283Y-32947D02*
X33283Y-33013D01*
X33386Y-33013D02*
X33189Y-33013D01*
X33189Y-32919D01*
X35124Y-28833D02*
X35115Y-28842D01*
X35087Y-28852D01*
X35068Y-28852D01*
X35040Y-28842D01*
X35021Y-28824D01*
X35012Y-28805D01*
X35002Y-28767D01*
X35002Y-28739D01*
X35012Y-28702D01*
X35021Y-28683D01*
X35040Y-28664D01*
X35068Y-28655D01*
X35087Y-28655D01*
X35115Y-28664D01*
X35124Y-28674D01*
X35190Y-28655D02*
X35312Y-28655D01*
X35246Y-28730D01*
X35274Y-28730D01*
X35293Y-28739D01*
X35302Y-28749D01*
X35312Y-28767D01*
X35312Y-28814D01*
X35302Y-28833D01*
X35293Y-28842D01*
X35274Y-28852D01*
X35218Y-28852D01*
X35199Y-28842D01*
X35190Y-28833D01*
X34852Y-29127D02*
X34740Y-29127D01*
X34796Y-29127D02*
X34796Y-28930D01*
X34777Y-28958D01*
X34758Y-28977D01*
X34740Y-28986D01*
X34974Y-28930D02*
X34993Y-28930D01*
X35012Y-28939D01*
X35021Y-28949D01*
X35030Y-28967D01*
X35040Y-29005D01*
X35040Y-29052D01*
X35030Y-29089D01*
X35021Y-29108D01*
X35012Y-29117D01*
X34993Y-29127D01*
X34974Y-29127D01*
X34955Y-29117D01*
X34946Y-29108D01*
X34937Y-29089D01*
X34927Y-29052D01*
X34927Y-29005D01*
X34937Y-28967D01*
X34946Y-28949D01*
X34955Y-28939D01*
X34974Y-28930D01*
X35162Y-28930D02*
X35180Y-28930D01*
X35199Y-28939D01*
X35209Y-28949D01*
X35218Y-28967D01*
X35227Y-29005D01*
X35227Y-29052D01*
X35218Y-29089D01*
X35209Y-29108D01*
X35199Y-29117D01*
X35180Y-29127D01*
X35162Y-29127D01*
X35143Y-29117D01*
X35134Y-29108D01*
X35124Y-29089D01*
X35115Y-29052D01*
X35115Y-29005D01*
X35124Y-28967D01*
X35134Y-28949D01*
X35143Y-28939D01*
X35162Y-28930D01*
X35312Y-28996D02*
X35312Y-29127D01*
X35312Y-29014D02*
X35321Y-29005D01*
X35340Y-28996D01*
X35368Y-28996D01*
X35387Y-29005D01*
X35396Y-29024D01*
X35396Y-29127D01*
X35556Y-29024D02*
X35490Y-29024D01*
X35490Y-29127D02*
X35490Y-28930D01*
X35584Y-28930D01*
X38943Y-33695D02*
X38934Y-33705D01*
X38906Y-33714D01*
X38887Y-33714D01*
X38859Y-33705D01*
X38840Y-33686D01*
X38830Y-33667D01*
X38821Y-33630D01*
X38821Y-33602D01*
X38830Y-33564D01*
X38840Y-33545D01*
X38859Y-33526D01*
X38887Y-33517D01*
X38906Y-33517D01*
X38934Y-33526D01*
X38943Y-33536D01*
X39112Y-33583D02*
X39112Y-33714D01*
X39065Y-33508D02*
X39018Y-33648D01*
X39140Y-33648D01*
X38671Y-34292D02*
X38558Y-34292D01*
X38615Y-34292D02*
X38615Y-34095D01*
X38596Y-34123D01*
X38577Y-34142D01*
X38558Y-34151D01*
X38793Y-34095D02*
X38812Y-34095D01*
X38830Y-34104D01*
X38840Y-34114D01*
X38849Y-34132D01*
X38859Y-34170D01*
X38859Y-34217D01*
X38849Y-34254D01*
X38840Y-34273D01*
X38830Y-34282D01*
X38812Y-34292D01*
X38793Y-34292D01*
X38774Y-34282D01*
X38765Y-34273D01*
X38755Y-34254D01*
X38746Y-34217D01*
X38746Y-34170D01*
X38755Y-34132D01*
X38765Y-34114D01*
X38774Y-34104D01*
X38793Y-34095D01*
X38981Y-34095D02*
X38999Y-34095D01*
X39018Y-34104D01*
X39027Y-34114D01*
X39037Y-34132D01*
X39046Y-34170D01*
X39046Y-34217D01*
X39037Y-34254D01*
X39027Y-34273D01*
X39018Y-34282D01*
X38999Y-34292D01*
X38981Y-34292D01*
X38962Y-34282D01*
X38952Y-34273D01*
X38943Y-34254D01*
X38934Y-34217D01*
X38934Y-34170D01*
X38943Y-34132D01*
X38952Y-34114D01*
X38962Y-34104D01*
X38981Y-34095D01*
X39131Y-34161D02*
X39131Y-34292D01*
X39131Y-34179D02*
X39140Y-34170D01*
X39159Y-34161D01*
X39187Y-34161D01*
X39206Y-34170D01*
X39215Y-34189D01*
X39215Y-34292D01*
X39375Y-34189D02*
X39309Y-34189D01*
X39309Y-34292D02*
X39309Y-34095D01*
X39403Y-34095D01*
X32705Y-29914D02*
X32715Y-29924D01*
X32724Y-29952D01*
X32724Y-29971D01*
X32715Y-29999D01*
X32696Y-30017D01*
X32677Y-30027D01*
X32639Y-30036D01*
X32611Y-30036D01*
X32574Y-30027D01*
X32555Y-30017D01*
X32536Y-29999D01*
X32527Y-29971D01*
X32527Y-29952D01*
X32536Y-29924D01*
X32546Y-29914D01*
X32527Y-29736D02*
X32527Y-29830D01*
X32621Y-29839D01*
X32611Y-29830D01*
X32602Y-29811D01*
X32602Y-29764D01*
X32611Y-29745D01*
X32621Y-29736D01*
X32639Y-29727D01*
X32686Y-29727D01*
X32705Y-29736D01*
X32715Y-29745D01*
X32724Y-29764D01*
X32724Y-29811D01*
X32715Y-29830D01*
X32705Y-29839D01*
X32932Y-29733D02*
X32923Y-29723D01*
X32914Y-29704D01*
X32914Y-29658D01*
X32923Y-29639D01*
X32932Y-29629D01*
X32951Y-29620D01*
X32970Y-29620D01*
X32998Y-29629D01*
X33111Y-29742D01*
X33111Y-29620D01*
X32914Y-29498D02*
X32914Y-29479D01*
X32923Y-29461D01*
X32932Y-29451D01*
X32951Y-29442D01*
X32989Y-29432D01*
X33036Y-29432D01*
X33073Y-29442D01*
X33092Y-29451D01*
X33101Y-29461D01*
X33111Y-29479D01*
X33111Y-29498D01*
X33101Y-29517D01*
X33092Y-29526D01*
X33073Y-29536D01*
X33036Y-29545D01*
X32989Y-29545D01*
X32951Y-29536D01*
X32932Y-29526D01*
X32923Y-29517D01*
X32914Y-29498D01*
X32979Y-29348D02*
X33176Y-29348D01*
X32989Y-29348D02*
X32979Y-29329D01*
X32979Y-29292D01*
X32989Y-29273D01*
X32998Y-29264D01*
X33017Y-29254D01*
X33073Y-29254D01*
X33092Y-29264D01*
X33101Y-29273D01*
X33111Y-29292D01*
X33111Y-29329D01*
X33101Y-29348D01*
X33008Y-29104D02*
X33008Y-29170D01*
X33111Y-29170D02*
X32914Y-29170D01*
X32914Y-29076D01*
X32455Y-27158D02*
X32465Y-27168D01*
X32474Y-27196D01*
X32474Y-27215D01*
X32465Y-27243D01*
X32446Y-27262D01*
X32427Y-27271D01*
X32389Y-27280D01*
X32361Y-27280D01*
X32324Y-27271D01*
X32305Y-27262D01*
X32286Y-27243D01*
X32277Y-27215D01*
X32277Y-27196D01*
X32286Y-27168D01*
X32296Y-27158D01*
X32277Y-26989D02*
X32277Y-27027D01*
X32286Y-27046D01*
X32296Y-27055D01*
X32324Y-27074D01*
X32361Y-27083D01*
X32436Y-27083D01*
X32455Y-27074D01*
X32465Y-27065D01*
X32474Y-27046D01*
X32474Y-27008D01*
X32465Y-26989D01*
X32455Y-26980D01*
X32436Y-26971D01*
X32389Y-26971D01*
X32371Y-26980D01*
X32361Y-26989D01*
X32352Y-27008D01*
X32352Y-27046D01*
X32361Y-27065D01*
X32371Y-27074D01*
X32389Y-27083D01*
X32893Y-27449D02*
X32884Y-27440D01*
X32874Y-27421D01*
X32874Y-27374D01*
X32884Y-27355D01*
X32893Y-27346D01*
X32912Y-27337D01*
X32931Y-27337D01*
X32959Y-27346D01*
X33071Y-27459D01*
X33071Y-27337D01*
X32874Y-27215D02*
X32874Y-27196D01*
X32884Y-27177D01*
X32893Y-27168D01*
X32912Y-27158D01*
X32949Y-27149D01*
X32996Y-27149D01*
X33034Y-27158D01*
X33053Y-27168D01*
X33062Y-27177D01*
X33071Y-27196D01*
X33071Y-27215D01*
X33062Y-27233D01*
X33053Y-27243D01*
X33034Y-27252D01*
X32996Y-27262D01*
X32949Y-27262D01*
X32912Y-27252D01*
X32893Y-27243D01*
X32884Y-27233D01*
X32874Y-27215D01*
X32940Y-27065D02*
X33137Y-27065D01*
X32949Y-27065D02*
X32940Y-27046D01*
X32940Y-27008D01*
X32949Y-26989D01*
X32959Y-26980D01*
X32978Y-26971D01*
X33034Y-26971D01*
X33053Y-26980D01*
X33062Y-26989D01*
X33071Y-27008D01*
X33071Y-27046D01*
X33062Y-27065D01*
X32968Y-26821D02*
X32968Y-26886D01*
X33071Y-26886D02*
X32874Y-26886D01*
X32874Y-26792D01*
G54D17*
X32366Y-36941D02*
X31966Y-36941D01*
X32157Y-36941D02*
X32157Y-36713D01*
X32366Y-36713D02*
X31966Y-36713D01*
X32157Y-36522D02*
X32157Y-36389D01*
X32366Y-36332D02*
X32366Y-36522D01*
X31966Y-36522D01*
X31966Y-36332D01*
X32252Y-36179D02*
X32252Y-35989D01*
X32366Y-36217D02*
X31966Y-36084D01*
X32366Y-35951D01*
X32366Y-35817D02*
X31966Y-35817D01*
X31966Y-35722D01*
X31985Y-35665D01*
X32023Y-35627D01*
X32061Y-35608D01*
X32138Y-35589D01*
X32195Y-35589D01*
X32271Y-35608D01*
X32309Y-35627D01*
X32347Y-35665D01*
X32366Y-35722D01*
X32366Y-35817D01*
X32157Y-35417D02*
X32157Y-35284D01*
X32366Y-35227D02*
X32366Y-35417D01*
X31966Y-35417D01*
X31966Y-35227D01*
X32366Y-34827D02*
X32176Y-34960D01*
X32366Y-35055D02*
X31966Y-35055D01*
X31966Y-34903D01*
X31985Y-34865D01*
X32004Y-34846D01*
X32042Y-34827D01*
X32099Y-34827D01*
X32138Y-34846D01*
X32157Y-34865D01*
X32176Y-34903D01*
X32176Y-35055D01*
X32366Y-34141D02*
X32366Y-34370D01*
X32366Y-34255D02*
X31966Y-34255D01*
X32023Y-34294D01*
X32061Y-34332D01*
X32080Y-34370D01*
X34829Y-28591D02*
X34829Y-28191D01*
X34829Y-28381D02*
X35058Y-28381D01*
X35058Y-28591D02*
X35058Y-28191D01*
X35249Y-28381D02*
X35382Y-28381D01*
X35439Y-28591D02*
X35249Y-28591D01*
X35249Y-28191D01*
X35439Y-28191D01*
X35591Y-28476D02*
X35782Y-28476D01*
X35553Y-28591D02*
X35687Y-28191D01*
X35820Y-28591D01*
X35953Y-28591D02*
X35953Y-28191D01*
X36049Y-28191D01*
X36106Y-28210D01*
X36144Y-28248D01*
X36163Y-28286D01*
X36182Y-28362D01*
X36182Y-28419D01*
X36163Y-28495D01*
X36144Y-28533D01*
X36106Y-28571D01*
X36049Y-28591D01*
X35953Y-28591D01*
X36353Y-28381D02*
X36487Y-28381D01*
X36544Y-28591D02*
X36353Y-28591D01*
X36353Y-28191D01*
X36544Y-28191D01*
X36944Y-28591D02*
X36810Y-28400D01*
X36715Y-28591D02*
X36715Y-28191D01*
X36868Y-28191D01*
X36906Y-28210D01*
X36925Y-28229D01*
X36944Y-28267D01*
X36944Y-28324D01*
X36925Y-28362D01*
X36906Y-28381D01*
X36868Y-28400D01*
X36715Y-28400D01*
X37401Y-28229D02*
X37420Y-28210D01*
X37458Y-28191D01*
X37553Y-28191D01*
X37591Y-28210D01*
X37610Y-28229D01*
X37629Y-28267D01*
X37629Y-28305D01*
X37610Y-28362D01*
X37382Y-28591D01*
X37629Y-28591D01*
X39965Y-32059D02*
X39565Y-32059D01*
X39755Y-32059D02*
X39755Y-31831D01*
X39965Y-31831D02*
X39565Y-31831D01*
X39755Y-31640D02*
X39755Y-31507D01*
X39965Y-31450D02*
X39965Y-31640D01*
X39565Y-31640D01*
X39565Y-31450D01*
X39850Y-31297D02*
X39850Y-31107D01*
X39965Y-31335D02*
X39565Y-31202D01*
X39965Y-31069D01*
X39965Y-30935D02*
X39565Y-30935D01*
X39565Y-30840D01*
X39584Y-30783D01*
X39622Y-30745D01*
X39660Y-30726D01*
X39736Y-30707D01*
X39793Y-30707D01*
X39869Y-30726D01*
X39907Y-30745D01*
X39946Y-30783D01*
X39965Y-30840D01*
X39965Y-30935D01*
X39755Y-30535D02*
X39755Y-30402D01*
X39965Y-30345D02*
X39965Y-30535D01*
X39565Y-30535D01*
X39565Y-30345D01*
X39965Y-29945D02*
X39774Y-30078D01*
X39965Y-30174D02*
X39565Y-30174D01*
X39565Y-30021D01*
X39584Y-29983D01*
X39603Y-29964D01*
X39641Y-29945D01*
X39698Y-29945D01*
X39736Y-29964D01*
X39755Y-29983D01*
X39774Y-30021D01*
X39774Y-30174D01*
X39565Y-29507D02*
X39565Y-29259D01*
X39717Y-29393D01*
X39717Y-29335D01*
X39736Y-29297D01*
X39755Y-29278D01*
X39793Y-29259D01*
X39888Y-29259D01*
X39926Y-29278D01*
X39946Y-29297D01*
X39965Y-29335D01*
X39965Y-29450D01*
X39946Y-29488D01*
X39926Y-29507D01*
G54D18*
X35846Y-36539D02*
X35846Y-36139D01*
X35998Y-36139D01*
X36036Y-36158D01*
X36056Y-36177D01*
X36075Y-36216D01*
X36075Y-36273D01*
X36056Y-36311D01*
X36036Y-36330D01*
X35998Y-36349D01*
X35846Y-36349D01*
X36208Y-36139D02*
X36456Y-36139D01*
X36322Y-36292D01*
X36379Y-36292D01*
X36417Y-36311D01*
X36436Y-36330D01*
X36456Y-36368D01*
X36456Y-36463D01*
X36436Y-36501D01*
X36417Y-36520D01*
X36379Y-36539D01*
X36265Y-36539D01*
X36227Y-36520D01*
X36208Y-36501D01*
G54D19*
G54D17*
X34790Y-35240D02*
X34790Y-34840D01*
X34790Y-35031D02*
X35019Y-35031D01*
X35019Y-35240D02*
X35019Y-34840D01*
X35209Y-35031D02*
X35343Y-35031D01*
X35400Y-35240D02*
X35209Y-35240D01*
X35209Y-34840D01*
X35400Y-34840D01*
X35552Y-35126D02*
X35743Y-35126D01*
X35514Y-35240D02*
X35647Y-34840D01*
X35781Y-35240D01*
X35914Y-35240D02*
X35914Y-34840D01*
X36009Y-34840D01*
X36066Y-34859D01*
X36104Y-34897D01*
X36123Y-34935D01*
X36143Y-35012D01*
X36143Y-35069D01*
X36123Y-35145D01*
X36104Y-35183D01*
X36066Y-35221D01*
X36009Y-35240D01*
X35914Y-35240D01*
X36314Y-35031D02*
X36447Y-35031D01*
X36504Y-35240D02*
X36314Y-35240D01*
X36314Y-34840D01*
X36504Y-34840D01*
X36904Y-35240D02*
X36771Y-35050D01*
X36676Y-35240D02*
X36676Y-34840D01*
X36828Y-34840D01*
X36866Y-34859D01*
X36885Y-34878D01*
X36904Y-34916D01*
X36904Y-34973D01*
X36885Y-35012D01*
X36866Y-35031D01*
X36828Y-35050D01*
X36676Y-35050D01*
X37552Y-34973D02*
X37552Y-35240D01*
X37457Y-34821D02*
X37362Y-35107D01*
X37609Y-35107D01*
G54D13*
X35693Y-31819D02*
X35932Y-31819D01*
X35960Y-31805D01*
X35974Y-31791D01*
X35988Y-31763D01*
X35988Y-31706D01*
X35974Y-31678D01*
X35960Y-31664D01*
X35932Y-31650D01*
X35693Y-31650D01*
X35988Y-31355D02*
X35988Y-31524D01*
X35988Y-31439D02*
X35693Y-31439D01*
X35735Y-31468D01*
X35763Y-31496D01*
X35777Y-31524D01*
X36874Y-33610D02*
X36888Y-33568D01*
X36888Y-33497D01*
X36874Y-33469D01*
X36860Y-33455D01*
X36832Y-33441D01*
X36804Y-33441D01*
X36775Y-33455D01*
X36761Y-33469D01*
X36747Y-33497D01*
X36733Y-33554D01*
X36719Y-33582D01*
X36705Y-33596D01*
X36677Y-33610D01*
X36649Y-33610D01*
X36621Y-33596D01*
X36607Y-33582D01*
X36593Y-33554D01*
X36593Y-33483D01*
X36607Y-33441D01*
X36593Y-33357D02*
X36593Y-33188D01*
X36888Y-33273D02*
X36593Y-33273D01*
X36888Y-33090D02*
X36593Y-33090D01*
X36804Y-32992D01*
X36593Y-32893D01*
X36888Y-32893D01*
X36593Y-32781D02*
X36593Y-32598D01*
X36705Y-32697D01*
X36705Y-32655D01*
X36719Y-32626D01*
X36733Y-32612D01*
X36761Y-32598D01*
X36832Y-32598D01*
X36860Y-32612D01*
X36874Y-32626D01*
X36888Y-32655D01*
X36888Y-32739D01*
X36874Y-32767D01*
X36860Y-32781D01*
X36621Y-32486D02*
X36607Y-32472D01*
X36593Y-32444D01*
X36593Y-32374D01*
X36607Y-32346D01*
X36621Y-32331D01*
X36649Y-32317D01*
X36677Y-32317D01*
X36719Y-32331D01*
X36888Y-32500D01*
X36888Y-32317D01*
X36888Y-32051D02*
X36888Y-32191D01*
X36593Y-32191D01*
X36888Y-31798D02*
X36888Y-31966D01*
X36888Y-31882D02*
X36593Y-31882D01*
X36635Y-31910D01*
X36663Y-31938D01*
X36677Y-31966D01*
X36593Y-31531D02*
X36593Y-31671D01*
X36733Y-31685D01*
X36719Y-31671D01*
X36705Y-31643D01*
X36705Y-31573D01*
X36719Y-31545D01*
X36733Y-31531D01*
X36761Y-31517D01*
X36832Y-31517D01*
X36860Y-31531D01*
X36874Y-31545D01*
X36888Y-31573D01*
X36888Y-31643D01*
X36874Y-31671D01*
X36860Y-31685D01*
X36593Y-31418D02*
X36888Y-31222D01*
X36593Y-31222D02*
X36888Y-31418D01*
X36916Y-31180D02*
X36916Y-30955D01*
X36916Y-30688D02*
X36902Y-30716D01*
X36874Y-30744D01*
X36832Y-30786D01*
X36818Y-30814D01*
X36818Y-30842D01*
X36888Y-30828D02*
X36874Y-30856D01*
X36846Y-30885D01*
X36789Y-30899D01*
X36691Y-30899D01*
X36635Y-30885D01*
X36607Y-30856D01*
X36593Y-30828D01*
X36593Y-30772D01*
X36607Y-30744D01*
X36635Y-30716D01*
X36691Y-30702D01*
X36789Y-30702D01*
X36846Y-30716D01*
X36874Y-30744D01*
X36888Y-30772D01*
X36888Y-30828D01*
X36733Y-30477D02*
X36733Y-30576D01*
X36888Y-30576D02*
X36593Y-30576D01*
X36593Y-30435D01*
X36888Y-30323D02*
X36593Y-30323D01*
X36888Y-30154D01*
X36593Y-30154D01*
X36691Y-29887D02*
X36888Y-29887D01*
X36579Y-29957D02*
X36789Y-30028D01*
X36789Y-29845D01*
X36719Y-29691D02*
X36705Y-29719D01*
X36691Y-29733D01*
X36663Y-29747D01*
X36649Y-29747D01*
X36621Y-29733D01*
X36607Y-29719D01*
X36593Y-29691D01*
X36593Y-29634D01*
X36607Y-29606D01*
X36621Y-29592D01*
X36649Y-29578D01*
X36663Y-29578D01*
X36691Y-29592D01*
X36705Y-29606D01*
X36719Y-29634D01*
X36719Y-29691D01*
X36733Y-29719D01*
X36747Y-29733D01*
X36775Y-29747D01*
X36832Y-29747D01*
X36860Y-29733D01*
X36874Y-29719D01*
X36888Y-29691D01*
X36888Y-29634D01*
X36874Y-29606D01*
X36860Y-29592D01*
X36832Y-29578D01*
X36775Y-29578D01*
X36747Y-29592D01*
X36733Y-29606D01*
X36719Y-29634D01*
G54D12*
X30321Y-29153D02*
X29721Y-29153D01*
X30007Y-29153D02*
X30007Y-28810D01*
X30321Y-28810D02*
X29721Y-28810D01*
X30293Y-28553D02*
X30321Y-28468D01*
X30321Y-28325D01*
X30293Y-28268D01*
X30264Y-28239D01*
X30207Y-28210D01*
X30150Y-28210D01*
X30093Y-28239D01*
X30064Y-28268D01*
X30035Y-28325D01*
X30007Y-28439D01*
X29978Y-28496D01*
X29950Y-28525D01*
X29893Y-28553D01*
X29835Y-28553D01*
X29778Y-28525D01*
X29750Y-28496D01*
X29721Y-28439D01*
X29721Y-28296D01*
X29750Y-28210D01*
X30007Y-27953D02*
X30007Y-27753D01*
X30321Y-27668D02*
X30321Y-27953D01*
X29721Y-27953D01*
X29721Y-27668D01*
M02*
