M48
INCH,TZ
T1C0.012
T2C0.030
T3C0.040
%
G90
G05
T1
X32874Y-32205
X33031Y-29961
X33858Y-30945
X34016Y-31732
X35157Y-28307
X35394Y-31102
X35512Y-31850
X35512Y-32283
X35748Y-30512
X35945Y-31299
X36024Y-32520
X36339Y-30591
X36732Y-30512
X37283Y-31063
X37303Y-30650
X37402Y-33858
X38543Y-29961
X40039Y-34213
T2
X30906Y-27543
X30906Y-29543
T3
X30406Y-31654
X30406Y-32654
X30406Y-33654
X30406Y-34654
X30406Y-35654
X30406Y-36654
X31406Y-31654
X31406Y-32654
X31406Y-33654
X31406Y-34654
X31406Y-35654
X31406Y-36654
X33622Y-35917
X33622Y-36917
X33720Y-26429
X33720Y-27429
X34622Y-35917
X34622Y-36917
X34720Y-26429
X34720Y-27429
X35622Y-35917
X35622Y-36917
X35720Y-26429
X35720Y-27429
X36622Y-35917
X36622Y-36917
X36720Y-26429
X36720Y-27429
X37622Y-35917
X37622Y-36917
X37720Y-26429
X37720Y-27429
X38622Y-35917
X38622Y-36917
X38720Y-26429
X38720Y-27429
X40642Y-28012
X40642Y-29012
X40642Y-30012
X40642Y-31012
X40642Y-32012
X40642Y-33012
X41642Y-28012
X41642Y-29012
X41642Y-30012
X41642Y-31012
X41642Y-32012
X41642Y-33012
T0
M30
