G04 (created by PCBNEW (25-Oct-2014 BZR 4029)-stable) date Tue 03 Feb 2015 19:56:06 CET*
%MOIN*%
G04 Gerber Fmt 3.4, Leading zero omitted, Abs format*
%FSLAX34Y34*%
G01*
G70*
G90*
G04 APERTURE LIST*
%ADD10C,0.006*%
%ADD11R,0.055X0.035*%
%ADD12R,0.035X0.055*%
%ADD13R,0.06X0.06*%
%ADD14C,0.06*%
%ADD15R,0.0512X0.0118*%
%ADD16R,0.0118X0.0512*%
%ADD17C,0.056*%
%ADD18C,0.0217*%
%ADD19C,0.0118*%
G04 APERTURE END LIST*
G54D10*
G54D11*
X39133Y-28995D03*
X39133Y-29745D03*
X32834Y-33050D03*
X32834Y-33800D03*
G54D12*
X34782Y-28897D03*
X35532Y-28897D03*
X38601Y-33759D03*
X39351Y-33759D03*
G54D11*
X32519Y-29506D03*
X32519Y-30256D03*
X32519Y-27500D03*
X32519Y-26750D03*
G54D13*
X30405Y-31653D03*
G54D14*
X31405Y-31653D03*
X30405Y-32653D03*
X31405Y-32653D03*
X30405Y-33653D03*
X31405Y-33653D03*
X30405Y-34653D03*
X31405Y-34653D03*
X30405Y-35653D03*
X31405Y-35653D03*
X30405Y-36653D03*
X31405Y-36653D03*
G54D13*
X33720Y-27429D03*
G54D14*
X33720Y-26429D03*
X34720Y-27429D03*
X34720Y-26429D03*
X35720Y-27429D03*
X35720Y-26429D03*
X36720Y-27429D03*
X36720Y-26429D03*
X37720Y-27429D03*
X37720Y-26429D03*
X38720Y-27429D03*
X38720Y-26429D03*
G54D13*
X40641Y-28011D03*
G54D14*
X41641Y-28011D03*
X40641Y-29011D03*
X41641Y-29011D03*
X40641Y-30011D03*
X41641Y-30011D03*
X40641Y-31011D03*
X41641Y-31011D03*
X40641Y-32011D03*
X41641Y-32011D03*
X40641Y-33011D03*
X41641Y-33011D03*
G54D13*
X33622Y-36917D03*
G54D14*
X33622Y-35917D03*
X34622Y-36917D03*
X34622Y-35917D03*
X35622Y-36917D03*
X35622Y-35917D03*
X36622Y-36917D03*
X36622Y-35917D03*
X37622Y-36917D03*
X37622Y-35917D03*
X38622Y-36917D03*
X38622Y-35917D03*
G54D15*
X34704Y-31102D03*
X34704Y-31299D03*
X34704Y-31496D03*
X34704Y-31692D03*
X34704Y-31889D03*
X34704Y-30511D03*
X34704Y-30708D03*
X34704Y-30905D03*
G54D16*
X35235Y-33208D03*
X35432Y-33208D03*
X35629Y-33208D03*
X35826Y-33208D03*
X36023Y-33208D03*
X36220Y-33208D03*
X36416Y-33208D03*
X36613Y-33208D03*
G54D15*
X37932Y-32677D03*
X37932Y-32480D03*
X37932Y-32283D03*
X37932Y-32086D03*
X37932Y-31889D03*
X37932Y-31692D03*
X37932Y-31496D03*
X37932Y-31299D03*
G54D16*
X37401Y-29980D03*
X37204Y-29980D03*
X37007Y-29980D03*
X36810Y-29980D03*
X36613Y-29980D03*
X36416Y-29980D03*
X36220Y-29980D03*
X36023Y-29980D03*
G54D15*
X34704Y-32086D03*
X34704Y-32283D03*
X34704Y-32480D03*
X34704Y-32677D03*
G54D16*
X36810Y-33208D03*
X37007Y-33208D03*
X37204Y-33208D03*
X37401Y-33208D03*
G54D15*
X37932Y-31102D03*
X37932Y-30905D03*
X37932Y-30708D03*
X37932Y-30511D03*
G54D16*
X35826Y-29980D03*
X35629Y-29980D03*
X35432Y-29980D03*
X35235Y-29980D03*
G54D17*
X30905Y-27543D03*
X30905Y-29543D03*
G54D18*
X36338Y-30590D03*
X35511Y-31850D03*
X35393Y-31102D03*
X35944Y-31299D03*
X34015Y-31732D03*
X37283Y-31062D03*
X36023Y-32519D03*
X36732Y-30511D03*
X35748Y-30511D03*
X33858Y-30944D03*
X32874Y-32204D03*
X37401Y-33858D03*
X38543Y-29960D03*
X33031Y-29960D03*
X35157Y-28307D03*
X35511Y-32283D03*
X40039Y-34212D03*
X37303Y-30649D03*
G54D10*
X36023Y-29980D02*
X36023Y-30275D01*
X36023Y-30275D02*
X36338Y-30590D01*
X36613Y-33208D02*
X36613Y-35909D01*
X36613Y-35909D02*
X36622Y-35917D01*
X35353Y-31692D02*
X34704Y-31692D01*
X35353Y-31692D02*
X35511Y-31850D01*
X34704Y-31299D02*
X35196Y-31299D01*
X35196Y-31299D02*
X35393Y-31102D01*
X32519Y-29506D02*
X30941Y-29506D01*
X30941Y-29506D02*
X30905Y-29543D01*
X34704Y-31496D02*
X35747Y-31496D01*
X35747Y-31496D02*
X35944Y-31299D01*
X34704Y-31496D02*
X34251Y-31496D01*
X34251Y-31496D02*
X34015Y-31732D01*
X30905Y-27543D02*
X32477Y-27543D01*
X32477Y-27543D02*
X32519Y-27500D01*
X33661Y-32677D02*
X34055Y-32283D01*
X31748Y-35653D02*
X33661Y-33740D01*
X33661Y-33740D02*
X33661Y-32677D01*
X31405Y-35653D02*
X31748Y-35653D01*
X34704Y-32283D02*
X34704Y-32283D01*
X34055Y-32283D02*
X34704Y-32283D01*
X33976Y-32716D02*
X34212Y-32480D01*
X30590Y-36653D02*
X31062Y-36181D01*
X31062Y-36181D02*
X31614Y-36181D01*
X31614Y-36181D02*
X33976Y-33818D01*
X33976Y-33818D02*
X33976Y-32716D01*
X30405Y-36653D02*
X30590Y-36653D01*
X34704Y-32480D02*
X34704Y-32480D01*
X34212Y-32480D02*
X34704Y-32480D01*
X37932Y-31299D02*
X38779Y-31299D01*
X40066Y-30011D02*
X40641Y-30011D01*
X38779Y-31299D02*
X40066Y-30011D01*
X37322Y-31102D02*
X37932Y-31102D01*
X37322Y-31102D02*
X37283Y-31062D01*
X37204Y-29980D02*
X37204Y-29606D01*
X38031Y-28118D02*
X38720Y-27429D01*
X38031Y-28779D02*
X38031Y-28118D01*
X37204Y-29606D02*
X38031Y-28779D01*
X31405Y-36653D02*
X31574Y-36653D01*
X34704Y-33523D02*
X34704Y-32677D01*
X31574Y-36653D02*
X34704Y-33523D01*
X35235Y-33208D02*
X35235Y-33504D01*
X32952Y-36248D02*
X33622Y-36917D01*
X32952Y-35787D02*
X32952Y-36248D01*
X35235Y-33504D02*
X32952Y-35787D01*
X35432Y-33208D02*
X35432Y-33779D01*
X33622Y-35590D02*
X33622Y-35917D01*
X35432Y-33779D02*
X33622Y-35590D01*
X34133Y-36338D02*
X34133Y-36429D01*
X35629Y-34173D02*
X34133Y-35669D01*
X34133Y-35669D02*
X34133Y-36338D01*
X35629Y-33208D02*
X35629Y-34173D01*
X34133Y-36429D02*
X34622Y-36917D01*
X35826Y-33208D02*
X35826Y-34712D01*
X35826Y-34712D02*
X34622Y-35917D01*
X36023Y-33208D02*
X36023Y-32519D01*
X36023Y-32519D02*
X36023Y-32519D01*
X39822Y-31515D02*
X41137Y-31515D01*
X39449Y-31889D02*
X39822Y-31515D01*
X37932Y-31889D02*
X39449Y-31889D01*
X41137Y-31515D02*
X41641Y-31011D01*
X36220Y-33208D02*
X36220Y-35318D01*
X36220Y-35318D02*
X35622Y-35917D01*
X36416Y-33208D02*
X36416Y-35394D01*
X36141Y-36437D02*
X36622Y-36917D01*
X36141Y-35669D02*
X36141Y-36437D01*
X36416Y-35394D02*
X36141Y-35669D01*
X37086Y-34448D02*
X37086Y-36381D01*
X36810Y-34173D02*
X37086Y-34448D01*
X36810Y-33208D02*
X36810Y-34173D01*
X37086Y-36381D02*
X37622Y-36917D01*
X37007Y-33208D02*
X37007Y-33779D01*
X37622Y-34393D02*
X37622Y-35917D01*
X37007Y-33779D02*
X37622Y-34393D01*
X40354Y-33622D02*
X41031Y-33622D01*
X39409Y-32677D02*
X40354Y-33622D01*
X37932Y-32677D02*
X39409Y-32677D01*
X41031Y-33622D02*
X41641Y-33011D01*
X37932Y-32480D02*
X39803Y-32480D01*
X40334Y-33011D02*
X40641Y-33011D01*
X39803Y-32480D02*
X40334Y-33011D01*
X40236Y-32519D02*
X41133Y-32519D01*
X40000Y-32283D02*
X40236Y-32519D01*
X37932Y-32283D02*
X40000Y-32283D01*
X41133Y-32519D02*
X41641Y-32011D01*
X39901Y-31830D02*
X40460Y-31830D01*
X39645Y-32086D02*
X39901Y-31830D01*
X37932Y-32086D02*
X39645Y-32086D01*
X40460Y-31830D02*
X40641Y-32011D01*
X38228Y-27598D02*
X38228Y-26937D01*
X37007Y-29980D02*
X37007Y-29488D01*
X37637Y-28858D02*
X37637Y-28188D01*
X37007Y-29488D02*
X37637Y-28858D01*
X38228Y-27598D02*
X37637Y-28188D01*
X38228Y-26937D02*
X37720Y-26429D01*
X36810Y-29980D02*
X36732Y-30511D01*
X36732Y-30511D02*
X36732Y-30511D01*
X37204Y-26913D02*
X36720Y-26429D01*
X37204Y-27952D02*
X37204Y-26913D01*
X37047Y-28110D02*
X37204Y-27952D01*
X37047Y-29212D02*
X37047Y-28110D01*
X36613Y-29645D02*
X37047Y-29212D01*
X36613Y-29980D02*
X36613Y-29645D01*
X36416Y-29980D02*
X36416Y-29527D01*
X36720Y-29224D02*
X36720Y-27429D01*
X36416Y-29527D02*
X36720Y-29224D01*
X36220Y-29980D02*
X36220Y-29448D01*
X36220Y-26929D02*
X35720Y-26429D01*
X36220Y-28188D02*
X36220Y-26929D01*
X36377Y-28346D02*
X36220Y-28188D01*
X36377Y-29291D02*
X36377Y-28346D01*
X36220Y-29448D02*
X36377Y-29291D01*
X35236Y-27795D02*
X35236Y-26944D01*
X36102Y-29212D02*
X36102Y-28661D01*
X35826Y-29488D02*
X36102Y-29212D01*
X35826Y-29980D02*
X35826Y-29488D01*
X36102Y-28661D02*
X35708Y-28267D01*
X35236Y-27795D02*
X35708Y-28267D01*
X35236Y-26944D02*
X34720Y-26429D01*
X35629Y-29980D02*
X35708Y-30472D01*
X35708Y-30472D02*
X35748Y-30511D01*
X34704Y-30708D02*
X34094Y-30708D01*
X34094Y-30708D02*
X33858Y-30944D01*
X33543Y-31653D02*
X32204Y-31653D01*
X34291Y-30905D02*
X33543Y-31653D01*
X34704Y-30905D02*
X34291Y-30905D01*
X30893Y-32165D02*
X30405Y-32653D01*
X31692Y-32165D02*
X30893Y-32165D01*
X32204Y-31653D02*
X31692Y-32165D01*
X33543Y-31850D02*
X32208Y-31850D01*
X34291Y-31102D02*
X33543Y-31850D01*
X34704Y-31102D02*
X34291Y-31102D01*
X32208Y-31850D02*
X31405Y-32653D01*
X40059Y-30492D02*
X41161Y-30492D01*
X39054Y-31496D02*
X40059Y-30492D01*
X37932Y-31496D02*
X39054Y-31496D01*
X41161Y-30492D02*
X41641Y-30011D01*
X37401Y-29980D02*
X37401Y-29842D01*
X39370Y-27078D02*
X38720Y-26429D01*
X39370Y-27874D02*
X39370Y-27078D01*
X37401Y-29842D02*
X39370Y-27874D01*
X37932Y-30905D02*
X38748Y-30905D01*
X38748Y-30905D02*
X40641Y-29011D01*
X39940Y-30984D02*
X40614Y-30984D01*
X39232Y-31692D02*
X39940Y-30984D01*
X37932Y-31692D02*
X39232Y-31692D01*
X40614Y-30984D02*
X40641Y-31011D01*
G54D19*
X36614Y-30984D02*
X35787Y-30984D01*
X35314Y-30511D02*
X34704Y-30511D01*
X35787Y-30984D02*
X35314Y-30511D01*
X37401Y-33208D02*
X37401Y-31771D01*
X37519Y-30511D02*
X37401Y-30393D01*
X37401Y-30393D02*
X37204Y-30393D01*
X37204Y-30393D02*
X36614Y-30984D01*
X37519Y-30511D02*
X37932Y-30511D01*
X37401Y-31771D02*
X36614Y-30984D01*
X34212Y-30511D02*
X34212Y-30196D01*
X34212Y-30196D02*
X34803Y-29606D01*
X34704Y-32086D02*
X32992Y-32086D01*
X32992Y-32086D02*
X32874Y-32204D01*
X32874Y-32204D02*
X32874Y-33010D01*
X32874Y-33010D02*
X32834Y-33050D01*
X29921Y-32795D02*
X29921Y-35169D01*
X30078Y-31653D02*
X29921Y-31811D01*
X29921Y-31811D02*
X29921Y-32795D01*
X30405Y-31653D02*
X30078Y-31653D01*
X29921Y-35169D02*
X30405Y-35653D01*
X38622Y-35917D02*
X38622Y-33780D01*
X38622Y-33780D02*
X38601Y-33759D01*
X38601Y-33759D02*
X37953Y-33759D01*
X37953Y-33759D02*
X37401Y-33208D01*
X40641Y-28011D02*
X39763Y-28011D01*
X39133Y-28641D02*
X39271Y-28503D01*
X39133Y-28641D02*
X39133Y-28995D01*
X39763Y-28011D02*
X39271Y-28503D01*
X37932Y-30511D02*
X37932Y-29901D01*
X37932Y-29901D02*
X37992Y-29842D01*
X38839Y-28995D02*
X37992Y-29842D01*
X38839Y-28995D02*
X39133Y-28995D01*
X34782Y-28897D02*
X34782Y-28491D01*
X34782Y-28491D02*
X33720Y-27429D01*
X34803Y-29724D02*
X34803Y-29606D01*
X35235Y-29980D02*
X35059Y-29980D01*
X35059Y-29980D02*
X34803Y-29724D01*
X34803Y-29606D02*
X34803Y-28918D01*
X34803Y-28918D02*
X34782Y-28897D01*
X34704Y-30511D02*
X34212Y-30511D01*
X34212Y-30511D02*
X33583Y-30511D01*
X31114Y-30944D02*
X30405Y-31653D01*
X33149Y-30944D02*
X31114Y-30944D01*
X33583Y-30511D02*
X33149Y-30944D01*
X37204Y-33208D02*
X37204Y-33661D01*
X37204Y-33661D02*
X37401Y-33858D01*
X39133Y-29745D02*
X38758Y-29745D01*
X38758Y-29745D02*
X38543Y-29960D01*
X32519Y-26750D02*
X32540Y-26750D01*
X32862Y-26429D02*
X33720Y-26429D01*
X32540Y-26750D02*
X32862Y-26429D01*
X32519Y-30256D02*
X32735Y-30256D01*
X32735Y-30256D02*
X33031Y-29960D01*
X35532Y-28897D02*
X35532Y-28682D01*
X35532Y-28682D02*
X35157Y-28307D01*
X34704Y-31889D02*
X35117Y-31889D01*
X35117Y-31889D02*
X35511Y-32283D01*
X31405Y-34653D02*
X31981Y-34653D01*
X31981Y-34653D02*
X32834Y-33800D01*
X39351Y-33759D02*
X39586Y-33759D01*
X39586Y-33759D02*
X40039Y-34212D01*
X37932Y-30708D02*
X37362Y-30708D01*
X37362Y-30708D02*
X37303Y-30649D01*
X35432Y-29980D02*
X35432Y-28997D01*
X35432Y-28997D02*
X35532Y-28897D01*
M02*
