G04 (created by PCBNEW (25-Oct-2014 BZR 4029)-stable) date Tue 03 Feb 2015 19:56:06 CET*
%MOIN*%
G04 Gerber Fmt 3.4, Leading zero omitted, Abs format*
%FSLAX34Y34*%
G01*
G70*
G90*
G04 APERTURE LIST*
%ADD10C,0.006*%
%ADD11R,0.055X0.035*%
%ADD12R,0.035X0.055*%
%ADD13R,0.06X0.06*%
%ADD14C,0.06*%
%ADD15R,0.0512X0.0118*%
%ADD16R,0.0118X0.0512*%
%ADD17C,0.056*%
G04 APERTURE END LIST*
G54D10*
G54D11*
X39133Y-28995D03*
X39133Y-29745D03*
X32834Y-33050D03*
X32834Y-33800D03*
G54D12*
X34782Y-28897D03*
X35532Y-28897D03*
X38601Y-33759D03*
X39351Y-33759D03*
G54D11*
X32519Y-29506D03*
X32519Y-30256D03*
X32519Y-27500D03*
X32519Y-26750D03*
G54D13*
X30405Y-31653D03*
G54D14*
X31405Y-31653D03*
X30405Y-32653D03*
X31405Y-32653D03*
X30405Y-33653D03*
X31405Y-33653D03*
X30405Y-34653D03*
X31405Y-34653D03*
X30405Y-35653D03*
X31405Y-35653D03*
X30405Y-36653D03*
X31405Y-36653D03*
G54D13*
X33720Y-27429D03*
G54D14*
X33720Y-26429D03*
X34720Y-27429D03*
X34720Y-26429D03*
X35720Y-27429D03*
X35720Y-26429D03*
X36720Y-27429D03*
X36720Y-26429D03*
X37720Y-27429D03*
X37720Y-26429D03*
X38720Y-27429D03*
X38720Y-26429D03*
G54D13*
X40641Y-28011D03*
G54D14*
X41641Y-28011D03*
X40641Y-29011D03*
X41641Y-29011D03*
X40641Y-30011D03*
X41641Y-30011D03*
X40641Y-31011D03*
X41641Y-31011D03*
X40641Y-32011D03*
X41641Y-32011D03*
X40641Y-33011D03*
X41641Y-33011D03*
G54D13*
X33622Y-36917D03*
G54D14*
X33622Y-35917D03*
X34622Y-36917D03*
X34622Y-35917D03*
X35622Y-36917D03*
X35622Y-35917D03*
X36622Y-36917D03*
X36622Y-35917D03*
X37622Y-36917D03*
X37622Y-35917D03*
X38622Y-36917D03*
X38622Y-35917D03*
G54D15*
X34704Y-31102D03*
X34704Y-31299D03*
X34704Y-31496D03*
X34704Y-31692D03*
X34704Y-31889D03*
X34704Y-30511D03*
X34704Y-30708D03*
X34704Y-30905D03*
G54D16*
X35235Y-33208D03*
X35432Y-33208D03*
X35629Y-33208D03*
X35826Y-33208D03*
X36023Y-33208D03*
X36220Y-33208D03*
X36416Y-33208D03*
X36613Y-33208D03*
G54D15*
X37932Y-32677D03*
X37932Y-32480D03*
X37932Y-32283D03*
X37932Y-32086D03*
X37932Y-31889D03*
X37932Y-31692D03*
X37932Y-31496D03*
X37932Y-31299D03*
G54D16*
X37401Y-29980D03*
X37204Y-29980D03*
X37007Y-29980D03*
X36810Y-29980D03*
X36613Y-29980D03*
X36416Y-29980D03*
X36220Y-29980D03*
X36023Y-29980D03*
G54D15*
X34704Y-32086D03*
X34704Y-32283D03*
X34704Y-32480D03*
X34704Y-32677D03*
G54D16*
X36810Y-33208D03*
X37007Y-33208D03*
X37204Y-33208D03*
X37401Y-33208D03*
G54D15*
X37932Y-31102D03*
X37932Y-30905D03*
X37932Y-30708D03*
X37932Y-30511D03*
G54D16*
X35826Y-29980D03*
X35629Y-29980D03*
X35432Y-29980D03*
X35235Y-29980D03*
G54D17*
X30905Y-27543D03*
X30905Y-29543D03*
M02*
