G04 (created by PCBNEW (25-Oct-2014 BZR 4029)-stable) date Tue 03 Feb 2015 19:56:06 CET*
%MOIN*%
G04 Gerber Fmt 3.4, Leading zero omitted, Abs format*
%FSLAX34Y34*%
G01*
G70*
G90*
G04 APERTURE LIST*
%ADD10C,0.006*%
%ADD11R,0.06X0.06*%
%ADD12C,0.06*%
%ADD13C,0.056*%
%ADD14C,0.0217*%
%ADD15C,0.0118*%
%ADD16C,0.0059*%
G04 APERTURE END LIST*
G54D10*
G54D11*
X30405Y-31653D03*
G54D12*
X31405Y-31653D03*
X30405Y-32653D03*
X31405Y-32653D03*
X30405Y-33653D03*
X31405Y-33653D03*
X30405Y-34653D03*
X31405Y-34653D03*
X30405Y-35653D03*
X31405Y-35653D03*
X30405Y-36653D03*
X31405Y-36653D03*
G54D11*
X33720Y-27429D03*
G54D12*
X33720Y-26429D03*
X34720Y-27429D03*
X34720Y-26429D03*
X35720Y-27429D03*
X35720Y-26429D03*
X36720Y-27429D03*
X36720Y-26429D03*
X37720Y-27429D03*
X37720Y-26429D03*
X38720Y-27429D03*
X38720Y-26429D03*
G54D11*
X40641Y-28011D03*
G54D12*
X41641Y-28011D03*
X40641Y-29011D03*
X41641Y-29011D03*
X40641Y-30011D03*
X41641Y-30011D03*
X40641Y-31011D03*
X41641Y-31011D03*
X40641Y-32011D03*
X41641Y-32011D03*
X40641Y-33011D03*
X41641Y-33011D03*
G54D11*
X33622Y-36917D03*
G54D12*
X33622Y-35917D03*
X34622Y-36917D03*
X34622Y-35917D03*
X35622Y-36917D03*
X35622Y-35917D03*
X36622Y-36917D03*
X36622Y-35917D03*
X37622Y-36917D03*
X37622Y-35917D03*
X38622Y-36917D03*
X38622Y-35917D03*
G54D13*
X30905Y-27543D03*
X30905Y-29543D03*
G54D14*
X36338Y-30590D03*
X35511Y-31850D03*
X35393Y-31102D03*
X35944Y-31299D03*
X34015Y-31732D03*
X37283Y-31062D03*
X36023Y-32519D03*
X36732Y-30511D03*
X35748Y-30511D03*
X33858Y-30944D03*
X32874Y-32204D03*
X37401Y-33858D03*
X38543Y-29960D03*
X33031Y-29960D03*
X35157Y-28307D03*
X35511Y-32283D03*
X40039Y-34212D03*
X37303Y-30649D03*
G54D10*
X35720Y-29972D02*
X35720Y-27429D01*
X36338Y-30590D02*
X35720Y-29972D01*
X30405Y-34653D02*
X30405Y-34633D01*
X31929Y-34173D02*
X30866Y-34173D01*
X33070Y-33031D02*
X31929Y-34173D01*
X34330Y-33031D02*
X33070Y-33031D01*
X35511Y-31850D02*
X34330Y-33031D01*
X30405Y-34633D02*
X30866Y-34173D01*
X31433Y-29015D02*
X30905Y-29543D01*
X33307Y-29015D02*
X31433Y-29015D01*
X35393Y-31102D02*
X33307Y-29015D01*
X30905Y-29543D02*
X30850Y-29543D01*
X29803Y-33051D02*
X30405Y-33653D01*
X29803Y-30590D02*
X29803Y-33051D01*
X30850Y-29543D02*
X29803Y-30590D01*
X31551Y-28188D02*
X30905Y-27543D01*
X32834Y-28188D02*
X31551Y-28188D01*
X35944Y-31299D02*
X32834Y-28188D01*
X32500Y-32559D02*
X31405Y-33653D01*
X33188Y-32559D02*
X32500Y-32559D01*
X34015Y-31732D02*
X33188Y-32559D01*
X41641Y-29011D02*
X41559Y-29011D01*
X38661Y-30905D02*
X40039Y-29527D01*
X37440Y-30905D02*
X38326Y-30905D01*
X37283Y-31062D02*
X37440Y-30905D01*
X38326Y-30905D02*
X38661Y-30905D01*
X41043Y-29527D02*
X40039Y-29527D01*
X41559Y-29011D02*
X41043Y-29527D01*
X36141Y-36397D02*
X35622Y-36917D01*
X36141Y-32637D02*
X36141Y-36397D01*
X36023Y-32519D02*
X36141Y-32637D01*
X37720Y-27476D02*
X37720Y-27429D01*
X36811Y-28385D02*
X37720Y-27476D01*
X36732Y-30511D02*
X36811Y-28385D01*
X34720Y-29484D02*
X34720Y-27429D01*
X35748Y-30511D02*
X34720Y-29484D01*
X31720Y-31338D02*
X31405Y-31653D01*
X33464Y-31338D02*
X31720Y-31338D01*
X33858Y-30944D02*
X33464Y-31338D01*
G54D15*
X30748Y-32165D02*
X30629Y-32165D01*
X32834Y-32165D02*
X30748Y-32165D01*
X32874Y-32204D02*
X32834Y-32165D01*
X30405Y-31940D02*
X30405Y-31653D01*
X30629Y-32165D02*
X30405Y-31940D01*
G54D10*
G36*
X42175Y-37450D02*
X42042Y-37450D01*
X42042Y-32932D01*
X42042Y-31932D01*
X42042Y-30932D01*
X42042Y-29932D01*
X42042Y-28932D01*
X42032Y-28909D01*
X42032Y-28075D01*
X42027Y-27920D01*
X41978Y-27803D01*
X41926Y-27769D01*
X41884Y-27810D01*
X41884Y-27727D01*
X41850Y-27674D01*
X41705Y-27620D01*
X41550Y-27626D01*
X41433Y-27674D01*
X41398Y-27727D01*
X41641Y-27970D01*
X41884Y-27727D01*
X41884Y-27810D01*
X41683Y-28011D01*
X41926Y-28254D01*
X41978Y-28220D01*
X42032Y-28075D01*
X42032Y-28909D01*
X41981Y-28785D01*
X41884Y-28688D01*
X41884Y-28296D01*
X41641Y-28053D01*
X41600Y-28095D01*
X41600Y-28011D01*
X41357Y-27769D01*
X41304Y-27803D01*
X41250Y-27948D01*
X41256Y-28102D01*
X41304Y-28220D01*
X41357Y-28254D01*
X41600Y-28011D01*
X41600Y-28095D01*
X41398Y-28296D01*
X41433Y-28348D01*
X41578Y-28402D01*
X41732Y-28397D01*
X41850Y-28348D01*
X41884Y-28296D01*
X41884Y-28688D01*
X41868Y-28672D01*
X41721Y-28611D01*
X41562Y-28611D01*
X41415Y-28672D01*
X41302Y-28784D01*
X41241Y-28931D01*
X41241Y-29091D01*
X41257Y-29129D01*
X40989Y-29397D01*
X40757Y-29397D01*
X40868Y-29351D01*
X40981Y-29238D01*
X41042Y-29091D01*
X41042Y-28932D01*
X41042Y-28932D01*
X41042Y-28291D01*
X41042Y-27691D01*
X41026Y-27654D01*
X40998Y-27626D01*
X40961Y-27611D01*
X40921Y-27611D01*
X40321Y-27611D01*
X40284Y-27626D01*
X40256Y-27654D01*
X40241Y-27691D01*
X40241Y-27731D01*
X40241Y-28331D01*
X40256Y-28368D01*
X40284Y-28396D01*
X40321Y-28412D01*
X40361Y-28412D01*
X40961Y-28412D01*
X40998Y-28397D01*
X41026Y-28368D01*
X41042Y-28331D01*
X41042Y-28291D01*
X41042Y-28932D01*
X40981Y-28785D01*
X40868Y-28672D01*
X40721Y-28611D01*
X40562Y-28611D01*
X40415Y-28672D01*
X40302Y-28784D01*
X40241Y-28931D01*
X40241Y-29091D01*
X40302Y-29238D01*
X40414Y-29351D01*
X40525Y-29397D01*
X40039Y-29397D01*
X39989Y-29407D01*
X39947Y-29435D01*
X39121Y-30261D01*
X39121Y-27349D01*
X39121Y-26349D01*
X39060Y-26202D01*
X38947Y-26089D01*
X38800Y-26028D01*
X38641Y-26028D01*
X38493Y-26089D01*
X38381Y-26201D01*
X38320Y-26349D01*
X38319Y-26508D01*
X38380Y-26655D01*
X38493Y-26768D01*
X38640Y-26829D01*
X38799Y-26829D01*
X38947Y-26768D01*
X39059Y-26656D01*
X39120Y-26509D01*
X39121Y-26349D01*
X39121Y-27349D01*
X39060Y-27202D01*
X38947Y-27089D01*
X38800Y-27028D01*
X38641Y-27028D01*
X38493Y-27089D01*
X38381Y-27201D01*
X38320Y-27349D01*
X38319Y-27508D01*
X38380Y-27655D01*
X38493Y-27768D01*
X38640Y-27829D01*
X38799Y-27829D01*
X38947Y-27768D01*
X39059Y-27656D01*
X39120Y-27509D01*
X39121Y-27349D01*
X39121Y-30261D01*
X38607Y-30775D01*
X38326Y-30775D01*
X38121Y-30775D01*
X38121Y-27349D01*
X38121Y-26349D01*
X38060Y-26202D01*
X37947Y-26089D01*
X37800Y-26028D01*
X37641Y-26028D01*
X37493Y-26089D01*
X37381Y-26201D01*
X37320Y-26349D01*
X37319Y-26508D01*
X37380Y-26655D01*
X37493Y-26768D01*
X37640Y-26829D01*
X37799Y-26829D01*
X37947Y-26768D01*
X38059Y-26656D01*
X38120Y-26509D01*
X38121Y-26349D01*
X38121Y-27349D01*
X38060Y-27202D01*
X37947Y-27089D01*
X37800Y-27028D01*
X37641Y-27028D01*
X37493Y-27089D01*
X37381Y-27201D01*
X37320Y-27349D01*
X37319Y-27508D01*
X37373Y-27638D01*
X37121Y-27891D01*
X37121Y-27349D01*
X37121Y-26349D01*
X37060Y-26202D01*
X36947Y-26089D01*
X36800Y-26028D01*
X36641Y-26028D01*
X36493Y-26089D01*
X36381Y-26201D01*
X36320Y-26349D01*
X36319Y-26508D01*
X36380Y-26655D01*
X36493Y-26768D01*
X36640Y-26829D01*
X36799Y-26829D01*
X36947Y-26768D01*
X37059Y-26656D01*
X37120Y-26509D01*
X37121Y-26349D01*
X37121Y-27349D01*
X37060Y-27202D01*
X36947Y-27089D01*
X36800Y-27028D01*
X36641Y-27028D01*
X36493Y-27089D01*
X36381Y-27201D01*
X36320Y-27349D01*
X36319Y-27508D01*
X36380Y-27655D01*
X36493Y-27768D01*
X36640Y-27829D01*
X36799Y-27829D01*
X36947Y-27768D01*
X37059Y-27656D01*
X37120Y-27509D01*
X37121Y-27349D01*
X37121Y-27891D01*
X36723Y-28289D01*
X36721Y-28290D01*
X36719Y-28292D01*
X36718Y-28293D01*
X36715Y-28298D01*
X36691Y-28331D01*
X36690Y-28335D01*
X36690Y-28335D01*
X36690Y-28338D01*
X36679Y-28381D01*
X36608Y-30340D01*
X36555Y-30393D01*
X36523Y-30470D01*
X36523Y-30490D01*
X36515Y-30472D01*
X36457Y-30413D01*
X36380Y-30381D01*
X36314Y-30381D01*
X35850Y-29918D01*
X35850Y-27808D01*
X35947Y-27768D01*
X36059Y-27656D01*
X36120Y-27509D01*
X36121Y-27349D01*
X36121Y-26349D01*
X36060Y-26202D01*
X35947Y-26089D01*
X35800Y-26028D01*
X35641Y-26028D01*
X35493Y-26089D01*
X35381Y-26201D01*
X35320Y-26349D01*
X35319Y-26508D01*
X35380Y-26655D01*
X35493Y-26768D01*
X35640Y-26829D01*
X35799Y-26829D01*
X35947Y-26768D01*
X36059Y-26656D01*
X36120Y-26509D01*
X36121Y-26349D01*
X36121Y-27349D01*
X36060Y-27202D01*
X35947Y-27089D01*
X35800Y-27028D01*
X35641Y-27028D01*
X35493Y-27089D01*
X35381Y-27201D01*
X35320Y-27349D01*
X35319Y-27508D01*
X35380Y-27655D01*
X35493Y-27768D01*
X35590Y-27808D01*
X35590Y-29972D01*
X35599Y-30022D01*
X35628Y-30064D01*
X36129Y-30566D01*
X36129Y-30631D01*
X36161Y-30708D01*
X36220Y-30767D01*
X36296Y-30799D01*
X36379Y-30799D01*
X36456Y-30767D01*
X36515Y-30709D01*
X36547Y-30632D01*
X36547Y-30611D01*
X36555Y-30630D01*
X36613Y-30688D01*
X36690Y-30720D01*
X36773Y-30720D01*
X36850Y-30689D01*
X36909Y-30630D01*
X36941Y-30553D01*
X36941Y-30470D01*
X36909Y-30393D01*
X36868Y-30352D01*
X36938Y-28442D01*
X37577Y-27803D01*
X37640Y-27829D01*
X37799Y-27829D01*
X37947Y-27768D01*
X38059Y-27656D01*
X38120Y-27509D01*
X38121Y-27349D01*
X38121Y-30775D01*
X37440Y-30775D01*
X37391Y-30784D01*
X37348Y-30813D01*
X37307Y-30854D01*
X37242Y-30853D01*
X37165Y-30885D01*
X37106Y-30944D01*
X37074Y-31021D01*
X37074Y-31104D01*
X37106Y-31181D01*
X37164Y-31240D01*
X37241Y-31271D01*
X37324Y-31271D01*
X37401Y-31240D01*
X37460Y-31181D01*
X37492Y-31104D01*
X37492Y-31038D01*
X37494Y-31035D01*
X38326Y-31035D01*
X38661Y-31035D01*
X38711Y-31026D01*
X38753Y-30997D01*
X40093Y-29658D01*
X40449Y-29658D01*
X40415Y-29672D01*
X40302Y-29784D01*
X40241Y-29931D01*
X40241Y-30091D01*
X40302Y-30238D01*
X40414Y-30351D01*
X40561Y-30412D01*
X40721Y-30412D01*
X40868Y-30351D01*
X40981Y-30238D01*
X41042Y-30091D01*
X41042Y-29932D01*
X40981Y-29785D01*
X40868Y-29672D01*
X40833Y-29658D01*
X41043Y-29658D01*
X41093Y-29648D01*
X41135Y-29619D01*
X41409Y-29345D01*
X41414Y-29351D01*
X41561Y-29412D01*
X41721Y-29412D01*
X41868Y-29351D01*
X41981Y-29238D01*
X42042Y-29091D01*
X42042Y-28932D01*
X42042Y-29932D01*
X41981Y-29785D01*
X41868Y-29672D01*
X41721Y-29611D01*
X41562Y-29611D01*
X41415Y-29672D01*
X41302Y-29784D01*
X41241Y-29931D01*
X41241Y-30091D01*
X41302Y-30238D01*
X41414Y-30351D01*
X41561Y-30412D01*
X41721Y-30412D01*
X41868Y-30351D01*
X41981Y-30238D01*
X42042Y-30091D01*
X42042Y-29932D01*
X42042Y-30932D01*
X41981Y-30785D01*
X41868Y-30672D01*
X41721Y-30611D01*
X41562Y-30611D01*
X41415Y-30672D01*
X41302Y-30784D01*
X41241Y-30931D01*
X41241Y-31091D01*
X41302Y-31238D01*
X41414Y-31351D01*
X41561Y-31412D01*
X41721Y-31412D01*
X41868Y-31351D01*
X41981Y-31238D01*
X42042Y-31091D01*
X42042Y-30932D01*
X42042Y-31932D01*
X41981Y-31785D01*
X41868Y-31672D01*
X41721Y-31611D01*
X41562Y-31611D01*
X41415Y-31672D01*
X41302Y-31784D01*
X41241Y-31931D01*
X41241Y-32091D01*
X41302Y-32238D01*
X41414Y-32351D01*
X41561Y-32412D01*
X41721Y-32412D01*
X41868Y-32351D01*
X41981Y-32238D01*
X42042Y-32091D01*
X42042Y-31932D01*
X42042Y-32932D01*
X41981Y-32785D01*
X41868Y-32672D01*
X41721Y-32611D01*
X41562Y-32611D01*
X41415Y-32672D01*
X41302Y-32784D01*
X41241Y-32931D01*
X41241Y-33091D01*
X41302Y-33238D01*
X41414Y-33351D01*
X41561Y-33412D01*
X41721Y-33412D01*
X41868Y-33351D01*
X41981Y-33238D01*
X42042Y-33091D01*
X42042Y-32932D01*
X42042Y-37450D01*
X41042Y-37450D01*
X41042Y-32932D01*
X41042Y-31932D01*
X41042Y-30932D01*
X40981Y-30785D01*
X40868Y-30672D01*
X40721Y-30611D01*
X40562Y-30611D01*
X40415Y-30672D01*
X40302Y-30784D01*
X40241Y-30931D01*
X40241Y-31091D01*
X40302Y-31238D01*
X40414Y-31351D01*
X40561Y-31412D01*
X40721Y-31412D01*
X40868Y-31351D01*
X40981Y-31238D01*
X41042Y-31091D01*
X41042Y-30932D01*
X41042Y-31932D01*
X40981Y-31785D01*
X40868Y-31672D01*
X40721Y-31611D01*
X40562Y-31611D01*
X40415Y-31672D01*
X40302Y-31784D01*
X40241Y-31931D01*
X40241Y-32091D01*
X40302Y-32238D01*
X40414Y-32351D01*
X40561Y-32412D01*
X40721Y-32412D01*
X40868Y-32351D01*
X40981Y-32238D01*
X41042Y-32091D01*
X41042Y-31932D01*
X41042Y-32932D01*
X40981Y-32785D01*
X40868Y-32672D01*
X40721Y-32611D01*
X40562Y-32611D01*
X40415Y-32672D01*
X40302Y-32784D01*
X40241Y-32931D01*
X40241Y-33091D01*
X40302Y-33238D01*
X40414Y-33351D01*
X40561Y-33412D01*
X40721Y-33412D01*
X40868Y-33351D01*
X40981Y-33238D01*
X41042Y-33091D01*
X41042Y-32932D01*
X41042Y-37450D01*
X39022Y-37450D01*
X39022Y-35838D01*
X38961Y-35690D01*
X38849Y-35578D01*
X38702Y-35516D01*
X38542Y-35516D01*
X38395Y-35577D01*
X38282Y-35690D01*
X38221Y-35837D01*
X38221Y-35996D01*
X38282Y-36143D01*
X38394Y-36256D01*
X38542Y-36317D01*
X38701Y-36317D01*
X38848Y-36257D01*
X38961Y-36144D01*
X39022Y-35997D01*
X39022Y-35838D01*
X39022Y-37450D01*
X39013Y-37450D01*
X39013Y-36980D01*
X39007Y-36826D01*
X38958Y-36709D01*
X38906Y-36674D01*
X38864Y-36716D01*
X38864Y-36632D01*
X38830Y-36580D01*
X38685Y-36526D01*
X38531Y-36531D01*
X38413Y-36580D01*
X38379Y-36632D01*
X38622Y-36875D01*
X38864Y-36632D01*
X38864Y-36716D01*
X38663Y-36917D01*
X38906Y-37160D01*
X38958Y-37125D01*
X39013Y-36980D01*
X39013Y-37450D01*
X38864Y-37450D01*
X38864Y-37201D01*
X38622Y-36959D01*
X38580Y-37000D01*
X38580Y-36917D01*
X38337Y-36674D01*
X38285Y-36709D01*
X38231Y-36853D01*
X38236Y-37008D01*
X38285Y-37125D01*
X38337Y-37160D01*
X38580Y-36917D01*
X38580Y-37000D01*
X38379Y-37201D01*
X38413Y-37254D01*
X38558Y-37308D01*
X38712Y-37302D01*
X38830Y-37254D01*
X38864Y-37201D01*
X38864Y-37450D01*
X38022Y-37450D01*
X38022Y-36838D01*
X38022Y-35838D01*
X37961Y-35690D01*
X37849Y-35578D01*
X37702Y-35516D01*
X37542Y-35516D01*
X37395Y-35577D01*
X37282Y-35690D01*
X37221Y-35837D01*
X37221Y-35996D01*
X37282Y-36143D01*
X37394Y-36256D01*
X37542Y-36317D01*
X37701Y-36317D01*
X37848Y-36257D01*
X37961Y-36144D01*
X38022Y-35997D01*
X38022Y-35838D01*
X38022Y-36838D01*
X37961Y-36690D01*
X37849Y-36578D01*
X37702Y-36516D01*
X37542Y-36516D01*
X37395Y-36577D01*
X37282Y-36690D01*
X37221Y-36837D01*
X37221Y-36996D01*
X37282Y-37143D01*
X37394Y-37256D01*
X37542Y-37317D01*
X37701Y-37317D01*
X37848Y-37257D01*
X37961Y-37144D01*
X38022Y-36997D01*
X38022Y-36838D01*
X38022Y-37450D01*
X37022Y-37450D01*
X37022Y-36838D01*
X37022Y-35838D01*
X36961Y-35690D01*
X36849Y-35578D01*
X36702Y-35516D01*
X36542Y-35516D01*
X36395Y-35577D01*
X36282Y-35690D01*
X36272Y-35715D01*
X36272Y-32637D01*
X36262Y-32587D01*
X36233Y-32545D01*
X36232Y-32544D01*
X36232Y-32478D01*
X36200Y-32401D01*
X36153Y-32354D01*
X36153Y-31257D01*
X36122Y-31181D01*
X36063Y-31122D01*
X35986Y-31090D01*
X35957Y-31090D01*
X35957Y-30470D01*
X35925Y-30393D01*
X35866Y-30334D01*
X35789Y-30302D01*
X35723Y-30302D01*
X34850Y-29430D01*
X34850Y-27808D01*
X34947Y-27768D01*
X35059Y-27656D01*
X35120Y-27509D01*
X35121Y-27349D01*
X35121Y-26349D01*
X35060Y-26202D01*
X34947Y-26089D01*
X34800Y-26028D01*
X34641Y-26028D01*
X34493Y-26089D01*
X34381Y-26201D01*
X34320Y-26349D01*
X34319Y-26508D01*
X34380Y-26655D01*
X34493Y-26768D01*
X34640Y-26829D01*
X34799Y-26829D01*
X34947Y-26768D01*
X35059Y-26656D01*
X35120Y-26509D01*
X35121Y-26349D01*
X35121Y-27349D01*
X35060Y-27202D01*
X34947Y-27089D01*
X34800Y-27028D01*
X34641Y-27028D01*
X34493Y-27089D01*
X34381Y-27201D01*
X34320Y-27349D01*
X34319Y-27508D01*
X34380Y-27655D01*
X34493Y-27768D01*
X34590Y-27808D01*
X34590Y-29484D01*
X34599Y-29534D01*
X34628Y-29576D01*
X35539Y-30487D01*
X35539Y-30553D01*
X35570Y-30630D01*
X35629Y-30688D01*
X35706Y-30720D01*
X35789Y-30720D01*
X35866Y-30689D01*
X35925Y-30630D01*
X35956Y-30553D01*
X35957Y-30470D01*
X35957Y-31090D01*
X35920Y-31090D01*
X34120Y-29290D01*
X34120Y-27709D01*
X34120Y-27109D01*
X34111Y-27086D01*
X34111Y-26492D01*
X34106Y-26338D01*
X34057Y-26220D01*
X34004Y-26186D01*
X33963Y-26228D01*
X33963Y-26144D01*
X33928Y-26092D01*
X33784Y-26038D01*
X33629Y-26043D01*
X33512Y-26092D01*
X33477Y-26144D01*
X33720Y-26387D01*
X33963Y-26144D01*
X33963Y-26228D01*
X33762Y-26429D01*
X34004Y-26671D01*
X34057Y-26637D01*
X34111Y-26492D01*
X34111Y-27086D01*
X34105Y-27072D01*
X34077Y-27044D01*
X34040Y-27028D01*
X34000Y-27028D01*
X33963Y-27028D01*
X33963Y-26713D01*
X33720Y-26470D01*
X33678Y-26512D01*
X33678Y-26429D01*
X33435Y-26186D01*
X33383Y-26220D01*
X33329Y-26365D01*
X33334Y-26520D01*
X33383Y-26637D01*
X33435Y-26671D01*
X33678Y-26429D01*
X33678Y-26512D01*
X33477Y-26713D01*
X33512Y-26766D01*
X33656Y-26820D01*
X33811Y-26814D01*
X33928Y-26766D01*
X33963Y-26713D01*
X33963Y-27028D01*
X33400Y-27028D01*
X33363Y-27043D01*
X33335Y-27072D01*
X33320Y-27109D01*
X33319Y-27149D01*
X33319Y-27749D01*
X33335Y-27785D01*
X33363Y-27814D01*
X33400Y-27829D01*
X33440Y-27829D01*
X34040Y-27829D01*
X34077Y-27814D01*
X34105Y-27786D01*
X34120Y-27749D01*
X34120Y-27709D01*
X34120Y-29290D01*
X32926Y-28096D01*
X32884Y-28068D01*
X32834Y-28058D01*
X31605Y-28058D01*
X31250Y-27704D01*
X31285Y-27619D01*
X31286Y-27467D01*
X31228Y-27328D01*
X31121Y-27220D01*
X30981Y-27162D01*
X30830Y-27162D01*
X30690Y-27220D01*
X30583Y-27327D01*
X30525Y-27467D01*
X30524Y-27618D01*
X30582Y-27758D01*
X30689Y-27865D01*
X30829Y-27923D01*
X30980Y-27923D01*
X31066Y-27888D01*
X31458Y-28281D01*
X31501Y-28309D01*
X31551Y-28319D01*
X32780Y-28319D01*
X33356Y-28895D01*
X33307Y-28885D01*
X31433Y-28885D01*
X31383Y-28895D01*
X31340Y-28923D01*
X31066Y-29198D01*
X30981Y-29162D01*
X30830Y-29162D01*
X30690Y-29220D01*
X30583Y-29327D01*
X30525Y-29467D01*
X30524Y-29618D01*
X30544Y-29665D01*
X29710Y-30498D01*
X29682Y-30540D01*
X29672Y-30590D01*
X29672Y-33051D01*
X29682Y-33101D01*
X29710Y-33143D01*
X30044Y-33477D01*
X30005Y-33573D01*
X30004Y-33732D01*
X30065Y-33880D01*
X30178Y-33992D01*
X30325Y-34053D01*
X30484Y-34054D01*
X30632Y-33993D01*
X30744Y-33880D01*
X30805Y-33733D01*
X30806Y-33574D01*
X30745Y-33426D01*
X30632Y-33314D01*
X30485Y-33253D01*
X30326Y-33253D01*
X30229Y-33292D01*
X29933Y-32997D01*
X29933Y-30644D01*
X30705Y-29872D01*
X30829Y-29923D01*
X30980Y-29923D01*
X31120Y-29866D01*
X31227Y-29759D01*
X31285Y-29619D01*
X31286Y-29467D01*
X31250Y-29382D01*
X31487Y-29146D01*
X33253Y-29146D01*
X35184Y-31077D01*
X35184Y-31143D01*
X35216Y-31220D01*
X35275Y-31279D01*
X35351Y-31311D01*
X35435Y-31311D01*
X35511Y-31279D01*
X35570Y-31220D01*
X35602Y-31144D01*
X35602Y-31141D01*
X35735Y-31274D01*
X35735Y-31340D01*
X35767Y-31417D01*
X35826Y-31476D01*
X35903Y-31508D01*
X35986Y-31508D01*
X36063Y-31476D01*
X36121Y-31417D01*
X36153Y-31340D01*
X36153Y-31257D01*
X36153Y-32354D01*
X36142Y-32342D01*
X36065Y-32310D01*
X35982Y-32310D01*
X35905Y-32342D01*
X35846Y-32401D01*
X35814Y-32477D01*
X35814Y-32561D01*
X35846Y-32637D01*
X35905Y-32696D01*
X35981Y-32728D01*
X36011Y-32728D01*
X36011Y-35810D01*
X35961Y-35690D01*
X35849Y-35578D01*
X35720Y-35524D01*
X35720Y-31809D01*
X35689Y-31732D01*
X35630Y-31673D01*
X35553Y-31641D01*
X35470Y-31641D01*
X35393Y-31673D01*
X35334Y-31731D01*
X35302Y-31808D01*
X35302Y-31874D01*
X34276Y-32901D01*
X33070Y-32901D01*
X33020Y-32910D01*
X32978Y-32939D01*
X31875Y-34042D01*
X31512Y-34042D01*
X31632Y-33993D01*
X31744Y-33880D01*
X31805Y-33733D01*
X31806Y-33574D01*
X31766Y-33477D01*
X32554Y-32689D01*
X33188Y-32689D01*
X33238Y-32679D01*
X33281Y-32651D01*
X33991Y-31941D01*
X34057Y-31941D01*
X34133Y-31909D01*
X34192Y-31850D01*
X34224Y-31774D01*
X34224Y-31690D01*
X34192Y-31614D01*
X34134Y-31555D01*
X34067Y-31527D01*
X34067Y-30903D01*
X34035Y-30826D01*
X33976Y-30767D01*
X33900Y-30735D01*
X33816Y-30735D01*
X33740Y-30767D01*
X33681Y-30826D01*
X33649Y-30903D01*
X33649Y-30969D01*
X33410Y-31208D01*
X31720Y-31208D01*
X31670Y-31218D01*
X31628Y-31246D01*
X31628Y-31246D01*
X31628Y-31246D01*
X31581Y-31293D01*
X31485Y-31253D01*
X31326Y-31253D01*
X31178Y-31313D01*
X31066Y-31426D01*
X31005Y-31573D01*
X31004Y-31732D01*
X31065Y-31880D01*
X31178Y-31992D01*
X31209Y-32005D01*
X30792Y-32005D01*
X30805Y-31973D01*
X30805Y-31933D01*
X30805Y-31333D01*
X30790Y-31296D01*
X30762Y-31268D01*
X30725Y-31253D01*
X30685Y-31253D01*
X30085Y-31253D01*
X30048Y-31268D01*
X30020Y-31296D01*
X30005Y-31333D01*
X30005Y-31373D01*
X30005Y-31973D01*
X30020Y-32010D01*
X30048Y-32038D01*
X30085Y-32053D01*
X30125Y-32054D01*
X30293Y-32054D01*
X30496Y-32257D01*
X30485Y-32253D01*
X30326Y-32253D01*
X30178Y-32313D01*
X30066Y-32426D01*
X30005Y-32573D01*
X30004Y-32732D01*
X30065Y-32880D01*
X30178Y-32992D01*
X30325Y-33053D01*
X30484Y-33054D01*
X30632Y-32993D01*
X30744Y-32880D01*
X30805Y-32733D01*
X30806Y-32574D01*
X30745Y-32426D01*
X30643Y-32324D01*
X30748Y-32324D01*
X31167Y-32324D01*
X31066Y-32426D01*
X31005Y-32573D01*
X31004Y-32732D01*
X31065Y-32880D01*
X31178Y-32992D01*
X31325Y-33053D01*
X31484Y-33054D01*
X31632Y-32993D01*
X31744Y-32880D01*
X31805Y-32733D01*
X31806Y-32574D01*
X31745Y-32426D01*
X31643Y-32324D01*
X32698Y-32324D01*
X32755Y-32381D01*
X32832Y-32413D01*
X32915Y-32413D01*
X32992Y-32381D01*
X33051Y-32323D01*
X33082Y-32246D01*
X33083Y-32163D01*
X33051Y-32086D01*
X32992Y-32027D01*
X32915Y-31995D01*
X32832Y-31995D01*
X32808Y-32005D01*
X31601Y-32005D01*
X31632Y-31993D01*
X31744Y-31880D01*
X31805Y-31733D01*
X31806Y-31574D01*
X31766Y-31477D01*
X31774Y-31469D01*
X33464Y-31469D01*
X33514Y-31459D01*
X33556Y-31430D01*
X33833Y-31153D01*
X33899Y-31153D01*
X33976Y-31122D01*
X34035Y-31063D01*
X34067Y-30986D01*
X34067Y-30903D01*
X34067Y-31527D01*
X34057Y-31523D01*
X33974Y-31523D01*
X33897Y-31555D01*
X33838Y-31613D01*
X33806Y-31690D01*
X33806Y-31756D01*
X33134Y-32428D01*
X32500Y-32428D01*
X32450Y-32438D01*
X32407Y-32466D01*
X32407Y-32466D01*
X31581Y-33293D01*
X31485Y-33253D01*
X31326Y-33253D01*
X31178Y-33313D01*
X31066Y-33426D01*
X31005Y-33573D01*
X31004Y-33732D01*
X31065Y-33880D01*
X31178Y-33992D01*
X31298Y-34042D01*
X30866Y-34042D01*
X30816Y-34052D01*
X30773Y-34080D01*
X30773Y-34080D01*
X30773Y-34080D01*
X30567Y-34287D01*
X30485Y-34253D01*
X30326Y-34253D01*
X30178Y-34313D01*
X30066Y-34426D01*
X30005Y-34573D01*
X30004Y-34732D01*
X30065Y-34880D01*
X30178Y-34992D01*
X30325Y-35053D01*
X30484Y-35054D01*
X30632Y-34993D01*
X30744Y-34880D01*
X30805Y-34733D01*
X30806Y-34574D01*
X30760Y-34463D01*
X30920Y-34303D01*
X31228Y-34303D01*
X31197Y-34316D01*
X31162Y-34369D01*
X31405Y-34611D01*
X31648Y-34369D01*
X31613Y-34316D01*
X31579Y-34303D01*
X31929Y-34303D01*
X31979Y-34293D01*
X32021Y-34265D01*
X33124Y-33161D01*
X34330Y-33161D01*
X34380Y-33152D01*
X34422Y-33123D01*
X35487Y-32059D01*
X35553Y-32059D01*
X35630Y-32027D01*
X35688Y-31968D01*
X35720Y-31892D01*
X35720Y-31809D01*
X35720Y-35524D01*
X35702Y-35516D01*
X35542Y-35516D01*
X35395Y-35577D01*
X35282Y-35690D01*
X35221Y-35837D01*
X35221Y-35996D01*
X35282Y-36143D01*
X35394Y-36256D01*
X35542Y-36317D01*
X35701Y-36317D01*
X35848Y-36257D01*
X35961Y-36144D01*
X36011Y-36024D01*
X36011Y-36343D01*
X35798Y-36556D01*
X35702Y-36516D01*
X35542Y-36516D01*
X35395Y-36577D01*
X35282Y-36690D01*
X35221Y-36837D01*
X35221Y-36996D01*
X35282Y-37143D01*
X35394Y-37256D01*
X35542Y-37317D01*
X35701Y-37317D01*
X35848Y-37257D01*
X35961Y-37144D01*
X36022Y-36997D01*
X36022Y-36838D01*
X35982Y-36741D01*
X36233Y-36489D01*
X36233Y-36489D01*
X36233Y-36489D01*
X36262Y-36447D01*
X36262Y-36447D01*
X36272Y-36397D01*
X36272Y-36397D01*
X36272Y-36119D01*
X36282Y-36143D01*
X36394Y-36256D01*
X36542Y-36317D01*
X36701Y-36317D01*
X36848Y-36257D01*
X36961Y-36144D01*
X37022Y-35997D01*
X37022Y-35838D01*
X37022Y-36838D01*
X36961Y-36690D01*
X36849Y-36578D01*
X36702Y-36516D01*
X36542Y-36516D01*
X36395Y-36577D01*
X36282Y-36690D01*
X36221Y-36837D01*
X36221Y-36996D01*
X36282Y-37143D01*
X36394Y-37256D01*
X36542Y-37317D01*
X36701Y-37317D01*
X36848Y-37257D01*
X36961Y-37144D01*
X37022Y-36997D01*
X37022Y-36838D01*
X37022Y-37450D01*
X35022Y-37450D01*
X35022Y-36838D01*
X35022Y-35838D01*
X34961Y-35690D01*
X34849Y-35578D01*
X34702Y-35516D01*
X34542Y-35516D01*
X34395Y-35577D01*
X34282Y-35690D01*
X34221Y-35837D01*
X34221Y-35996D01*
X34282Y-36143D01*
X34394Y-36256D01*
X34542Y-36317D01*
X34701Y-36317D01*
X34848Y-36257D01*
X34961Y-36144D01*
X35022Y-35997D01*
X35022Y-35838D01*
X35022Y-36838D01*
X34961Y-36690D01*
X34849Y-36578D01*
X34702Y-36516D01*
X34542Y-36516D01*
X34395Y-36577D01*
X34282Y-36690D01*
X34221Y-36837D01*
X34221Y-36996D01*
X34282Y-37143D01*
X34394Y-37256D01*
X34542Y-37317D01*
X34701Y-37317D01*
X34848Y-37257D01*
X34961Y-37144D01*
X35022Y-36997D01*
X35022Y-36838D01*
X35022Y-37450D01*
X34022Y-37450D01*
X34022Y-35838D01*
X33961Y-35690D01*
X33849Y-35578D01*
X33702Y-35516D01*
X33542Y-35516D01*
X33395Y-35577D01*
X33282Y-35690D01*
X33221Y-35837D01*
X33221Y-35996D01*
X33282Y-36143D01*
X33394Y-36256D01*
X33542Y-36317D01*
X33701Y-36317D01*
X33848Y-36257D01*
X33961Y-36144D01*
X34022Y-35997D01*
X34022Y-35838D01*
X34022Y-37450D01*
X34022Y-37450D01*
X34022Y-37197D01*
X34022Y-36597D01*
X34007Y-36560D01*
X33979Y-36532D01*
X33942Y-36516D01*
X33902Y-36516D01*
X33302Y-36516D01*
X33265Y-36532D01*
X33236Y-36560D01*
X33221Y-36597D01*
X33221Y-36637D01*
X33221Y-37237D01*
X33236Y-37274D01*
X33265Y-37302D01*
X33301Y-37317D01*
X33341Y-37317D01*
X33941Y-37317D01*
X33978Y-37302D01*
X34007Y-37274D01*
X34022Y-37237D01*
X34022Y-37197D01*
X34022Y-37450D01*
X31806Y-37450D01*
X31806Y-36574D01*
X31806Y-35574D01*
X31796Y-35551D01*
X31796Y-34717D01*
X31791Y-34562D01*
X31742Y-34445D01*
X31689Y-34410D01*
X31447Y-34653D01*
X31689Y-34896D01*
X31742Y-34861D01*
X31796Y-34717D01*
X31796Y-35551D01*
X31745Y-35426D01*
X31648Y-35329D01*
X31648Y-34938D01*
X31405Y-34695D01*
X31363Y-34736D01*
X31363Y-34653D01*
X31121Y-34410D01*
X31068Y-34445D01*
X31014Y-34590D01*
X31019Y-34744D01*
X31068Y-34861D01*
X31121Y-34896D01*
X31363Y-34653D01*
X31363Y-34736D01*
X31162Y-34938D01*
X31197Y-34990D01*
X31341Y-35044D01*
X31496Y-35039D01*
X31613Y-34990D01*
X31648Y-34938D01*
X31648Y-35329D01*
X31632Y-35314D01*
X31485Y-35253D01*
X31326Y-35253D01*
X31178Y-35313D01*
X31066Y-35426D01*
X31005Y-35573D01*
X31004Y-35732D01*
X31065Y-35880D01*
X31178Y-35992D01*
X31325Y-36053D01*
X31484Y-36054D01*
X31632Y-35993D01*
X31744Y-35880D01*
X31805Y-35733D01*
X31806Y-35574D01*
X31806Y-36574D01*
X31745Y-36426D01*
X31632Y-36314D01*
X31485Y-36253D01*
X31326Y-36253D01*
X31178Y-36313D01*
X31066Y-36426D01*
X31005Y-36573D01*
X31004Y-36732D01*
X31065Y-36880D01*
X31178Y-36992D01*
X31325Y-37053D01*
X31484Y-37054D01*
X31632Y-36993D01*
X31744Y-36880D01*
X31805Y-36733D01*
X31806Y-36574D01*
X31806Y-37450D01*
X30806Y-37450D01*
X30806Y-36574D01*
X30806Y-35574D01*
X30745Y-35426D01*
X30632Y-35314D01*
X30485Y-35253D01*
X30326Y-35253D01*
X30178Y-35313D01*
X30066Y-35426D01*
X30005Y-35573D01*
X30004Y-35732D01*
X30065Y-35880D01*
X30178Y-35992D01*
X30325Y-36053D01*
X30484Y-36054D01*
X30632Y-35993D01*
X30744Y-35880D01*
X30805Y-35733D01*
X30806Y-35574D01*
X30806Y-36574D01*
X30745Y-36426D01*
X30632Y-36314D01*
X30485Y-36253D01*
X30326Y-36253D01*
X30178Y-36313D01*
X30066Y-36426D01*
X30005Y-36573D01*
X30004Y-36732D01*
X30065Y-36880D01*
X30178Y-36992D01*
X30325Y-37053D01*
X30484Y-37054D01*
X30632Y-36993D01*
X30744Y-36880D01*
X30805Y-36733D01*
X30806Y-36574D01*
X30806Y-37450D01*
X29647Y-37450D01*
X29647Y-25868D01*
X42175Y-25868D01*
X42175Y-37450D01*
X42175Y-37450D01*
G37*
G54D16*
X42175Y-37450D02*
X42042Y-37450D01*
X42042Y-32932D01*
X42042Y-31932D01*
X42042Y-30932D01*
X42042Y-29932D01*
X42042Y-28932D01*
X42032Y-28909D01*
X42032Y-28075D01*
X42027Y-27920D01*
X41978Y-27803D01*
X41926Y-27769D01*
X41884Y-27810D01*
X41884Y-27727D01*
X41850Y-27674D01*
X41705Y-27620D01*
X41550Y-27626D01*
X41433Y-27674D01*
X41398Y-27727D01*
X41641Y-27970D01*
X41884Y-27727D01*
X41884Y-27810D01*
X41683Y-28011D01*
X41926Y-28254D01*
X41978Y-28220D01*
X42032Y-28075D01*
X42032Y-28909D01*
X41981Y-28785D01*
X41884Y-28688D01*
X41884Y-28296D01*
X41641Y-28053D01*
X41600Y-28095D01*
X41600Y-28011D01*
X41357Y-27769D01*
X41304Y-27803D01*
X41250Y-27948D01*
X41256Y-28102D01*
X41304Y-28220D01*
X41357Y-28254D01*
X41600Y-28011D01*
X41600Y-28095D01*
X41398Y-28296D01*
X41433Y-28348D01*
X41578Y-28402D01*
X41732Y-28397D01*
X41850Y-28348D01*
X41884Y-28296D01*
X41884Y-28688D01*
X41868Y-28672D01*
X41721Y-28611D01*
X41562Y-28611D01*
X41415Y-28672D01*
X41302Y-28784D01*
X41241Y-28931D01*
X41241Y-29091D01*
X41257Y-29129D01*
X40989Y-29397D01*
X40757Y-29397D01*
X40868Y-29351D01*
X40981Y-29238D01*
X41042Y-29091D01*
X41042Y-28932D01*
X41042Y-28932D01*
X41042Y-28291D01*
X41042Y-27691D01*
X41026Y-27654D01*
X40998Y-27626D01*
X40961Y-27611D01*
X40921Y-27611D01*
X40321Y-27611D01*
X40284Y-27626D01*
X40256Y-27654D01*
X40241Y-27691D01*
X40241Y-27731D01*
X40241Y-28331D01*
X40256Y-28368D01*
X40284Y-28396D01*
X40321Y-28412D01*
X40361Y-28412D01*
X40961Y-28412D01*
X40998Y-28397D01*
X41026Y-28368D01*
X41042Y-28331D01*
X41042Y-28291D01*
X41042Y-28932D01*
X40981Y-28785D01*
X40868Y-28672D01*
X40721Y-28611D01*
X40562Y-28611D01*
X40415Y-28672D01*
X40302Y-28784D01*
X40241Y-28931D01*
X40241Y-29091D01*
X40302Y-29238D01*
X40414Y-29351D01*
X40525Y-29397D01*
X40039Y-29397D01*
X39989Y-29407D01*
X39947Y-29435D01*
X39121Y-30261D01*
X39121Y-27349D01*
X39121Y-26349D01*
X39060Y-26202D01*
X38947Y-26089D01*
X38800Y-26028D01*
X38641Y-26028D01*
X38493Y-26089D01*
X38381Y-26201D01*
X38320Y-26349D01*
X38319Y-26508D01*
X38380Y-26655D01*
X38493Y-26768D01*
X38640Y-26829D01*
X38799Y-26829D01*
X38947Y-26768D01*
X39059Y-26656D01*
X39120Y-26509D01*
X39121Y-26349D01*
X39121Y-27349D01*
X39060Y-27202D01*
X38947Y-27089D01*
X38800Y-27028D01*
X38641Y-27028D01*
X38493Y-27089D01*
X38381Y-27201D01*
X38320Y-27349D01*
X38319Y-27508D01*
X38380Y-27655D01*
X38493Y-27768D01*
X38640Y-27829D01*
X38799Y-27829D01*
X38947Y-27768D01*
X39059Y-27656D01*
X39120Y-27509D01*
X39121Y-27349D01*
X39121Y-30261D01*
X38607Y-30775D01*
X38326Y-30775D01*
X38121Y-30775D01*
X38121Y-27349D01*
X38121Y-26349D01*
X38060Y-26202D01*
X37947Y-26089D01*
X37800Y-26028D01*
X37641Y-26028D01*
X37493Y-26089D01*
X37381Y-26201D01*
X37320Y-26349D01*
X37319Y-26508D01*
X37380Y-26655D01*
X37493Y-26768D01*
X37640Y-26829D01*
X37799Y-26829D01*
X37947Y-26768D01*
X38059Y-26656D01*
X38120Y-26509D01*
X38121Y-26349D01*
X38121Y-27349D01*
X38060Y-27202D01*
X37947Y-27089D01*
X37800Y-27028D01*
X37641Y-27028D01*
X37493Y-27089D01*
X37381Y-27201D01*
X37320Y-27349D01*
X37319Y-27508D01*
X37373Y-27638D01*
X37121Y-27891D01*
X37121Y-27349D01*
X37121Y-26349D01*
X37060Y-26202D01*
X36947Y-26089D01*
X36800Y-26028D01*
X36641Y-26028D01*
X36493Y-26089D01*
X36381Y-26201D01*
X36320Y-26349D01*
X36319Y-26508D01*
X36380Y-26655D01*
X36493Y-26768D01*
X36640Y-26829D01*
X36799Y-26829D01*
X36947Y-26768D01*
X37059Y-26656D01*
X37120Y-26509D01*
X37121Y-26349D01*
X37121Y-27349D01*
X37060Y-27202D01*
X36947Y-27089D01*
X36800Y-27028D01*
X36641Y-27028D01*
X36493Y-27089D01*
X36381Y-27201D01*
X36320Y-27349D01*
X36319Y-27508D01*
X36380Y-27655D01*
X36493Y-27768D01*
X36640Y-27829D01*
X36799Y-27829D01*
X36947Y-27768D01*
X37059Y-27656D01*
X37120Y-27509D01*
X37121Y-27349D01*
X37121Y-27891D01*
X36723Y-28289D01*
X36721Y-28290D01*
X36719Y-28292D01*
X36718Y-28293D01*
X36715Y-28298D01*
X36691Y-28331D01*
X36690Y-28335D01*
X36690Y-28335D01*
X36690Y-28338D01*
X36679Y-28381D01*
X36608Y-30340D01*
X36555Y-30393D01*
X36523Y-30470D01*
X36523Y-30490D01*
X36515Y-30472D01*
X36457Y-30413D01*
X36380Y-30381D01*
X36314Y-30381D01*
X35850Y-29918D01*
X35850Y-27808D01*
X35947Y-27768D01*
X36059Y-27656D01*
X36120Y-27509D01*
X36121Y-27349D01*
X36121Y-26349D01*
X36060Y-26202D01*
X35947Y-26089D01*
X35800Y-26028D01*
X35641Y-26028D01*
X35493Y-26089D01*
X35381Y-26201D01*
X35320Y-26349D01*
X35319Y-26508D01*
X35380Y-26655D01*
X35493Y-26768D01*
X35640Y-26829D01*
X35799Y-26829D01*
X35947Y-26768D01*
X36059Y-26656D01*
X36120Y-26509D01*
X36121Y-26349D01*
X36121Y-27349D01*
X36060Y-27202D01*
X35947Y-27089D01*
X35800Y-27028D01*
X35641Y-27028D01*
X35493Y-27089D01*
X35381Y-27201D01*
X35320Y-27349D01*
X35319Y-27508D01*
X35380Y-27655D01*
X35493Y-27768D01*
X35590Y-27808D01*
X35590Y-29972D01*
X35599Y-30022D01*
X35628Y-30064D01*
X36129Y-30566D01*
X36129Y-30631D01*
X36161Y-30708D01*
X36220Y-30767D01*
X36296Y-30799D01*
X36379Y-30799D01*
X36456Y-30767D01*
X36515Y-30709D01*
X36547Y-30632D01*
X36547Y-30611D01*
X36555Y-30630D01*
X36613Y-30688D01*
X36690Y-30720D01*
X36773Y-30720D01*
X36850Y-30689D01*
X36909Y-30630D01*
X36941Y-30553D01*
X36941Y-30470D01*
X36909Y-30393D01*
X36868Y-30352D01*
X36938Y-28442D01*
X37577Y-27803D01*
X37640Y-27829D01*
X37799Y-27829D01*
X37947Y-27768D01*
X38059Y-27656D01*
X38120Y-27509D01*
X38121Y-27349D01*
X38121Y-30775D01*
X37440Y-30775D01*
X37391Y-30784D01*
X37348Y-30813D01*
X37307Y-30854D01*
X37242Y-30853D01*
X37165Y-30885D01*
X37106Y-30944D01*
X37074Y-31021D01*
X37074Y-31104D01*
X37106Y-31181D01*
X37164Y-31240D01*
X37241Y-31271D01*
X37324Y-31271D01*
X37401Y-31240D01*
X37460Y-31181D01*
X37492Y-31104D01*
X37492Y-31038D01*
X37494Y-31035D01*
X38326Y-31035D01*
X38661Y-31035D01*
X38711Y-31026D01*
X38753Y-30997D01*
X40093Y-29658D01*
X40449Y-29658D01*
X40415Y-29672D01*
X40302Y-29784D01*
X40241Y-29931D01*
X40241Y-30091D01*
X40302Y-30238D01*
X40414Y-30351D01*
X40561Y-30412D01*
X40721Y-30412D01*
X40868Y-30351D01*
X40981Y-30238D01*
X41042Y-30091D01*
X41042Y-29932D01*
X40981Y-29785D01*
X40868Y-29672D01*
X40833Y-29658D01*
X41043Y-29658D01*
X41093Y-29648D01*
X41135Y-29619D01*
X41409Y-29345D01*
X41414Y-29351D01*
X41561Y-29412D01*
X41721Y-29412D01*
X41868Y-29351D01*
X41981Y-29238D01*
X42042Y-29091D01*
X42042Y-28932D01*
X42042Y-29932D01*
X41981Y-29785D01*
X41868Y-29672D01*
X41721Y-29611D01*
X41562Y-29611D01*
X41415Y-29672D01*
X41302Y-29784D01*
X41241Y-29931D01*
X41241Y-30091D01*
X41302Y-30238D01*
X41414Y-30351D01*
X41561Y-30412D01*
X41721Y-30412D01*
X41868Y-30351D01*
X41981Y-30238D01*
X42042Y-30091D01*
X42042Y-29932D01*
X42042Y-30932D01*
X41981Y-30785D01*
X41868Y-30672D01*
X41721Y-30611D01*
X41562Y-30611D01*
X41415Y-30672D01*
X41302Y-30784D01*
X41241Y-30931D01*
X41241Y-31091D01*
X41302Y-31238D01*
X41414Y-31351D01*
X41561Y-31412D01*
X41721Y-31412D01*
X41868Y-31351D01*
X41981Y-31238D01*
X42042Y-31091D01*
X42042Y-30932D01*
X42042Y-31932D01*
X41981Y-31785D01*
X41868Y-31672D01*
X41721Y-31611D01*
X41562Y-31611D01*
X41415Y-31672D01*
X41302Y-31784D01*
X41241Y-31931D01*
X41241Y-32091D01*
X41302Y-32238D01*
X41414Y-32351D01*
X41561Y-32412D01*
X41721Y-32412D01*
X41868Y-32351D01*
X41981Y-32238D01*
X42042Y-32091D01*
X42042Y-31932D01*
X42042Y-32932D01*
X41981Y-32785D01*
X41868Y-32672D01*
X41721Y-32611D01*
X41562Y-32611D01*
X41415Y-32672D01*
X41302Y-32784D01*
X41241Y-32931D01*
X41241Y-33091D01*
X41302Y-33238D01*
X41414Y-33351D01*
X41561Y-33412D01*
X41721Y-33412D01*
X41868Y-33351D01*
X41981Y-33238D01*
X42042Y-33091D01*
X42042Y-32932D01*
X42042Y-37450D01*
X41042Y-37450D01*
X41042Y-32932D01*
X41042Y-31932D01*
X41042Y-30932D01*
X40981Y-30785D01*
X40868Y-30672D01*
X40721Y-30611D01*
X40562Y-30611D01*
X40415Y-30672D01*
X40302Y-30784D01*
X40241Y-30931D01*
X40241Y-31091D01*
X40302Y-31238D01*
X40414Y-31351D01*
X40561Y-31412D01*
X40721Y-31412D01*
X40868Y-31351D01*
X40981Y-31238D01*
X41042Y-31091D01*
X41042Y-30932D01*
X41042Y-31932D01*
X40981Y-31785D01*
X40868Y-31672D01*
X40721Y-31611D01*
X40562Y-31611D01*
X40415Y-31672D01*
X40302Y-31784D01*
X40241Y-31931D01*
X40241Y-32091D01*
X40302Y-32238D01*
X40414Y-32351D01*
X40561Y-32412D01*
X40721Y-32412D01*
X40868Y-32351D01*
X40981Y-32238D01*
X41042Y-32091D01*
X41042Y-31932D01*
X41042Y-32932D01*
X40981Y-32785D01*
X40868Y-32672D01*
X40721Y-32611D01*
X40562Y-32611D01*
X40415Y-32672D01*
X40302Y-32784D01*
X40241Y-32931D01*
X40241Y-33091D01*
X40302Y-33238D01*
X40414Y-33351D01*
X40561Y-33412D01*
X40721Y-33412D01*
X40868Y-33351D01*
X40981Y-33238D01*
X41042Y-33091D01*
X41042Y-32932D01*
X41042Y-37450D01*
X39022Y-37450D01*
X39022Y-35838D01*
X38961Y-35690D01*
X38849Y-35578D01*
X38702Y-35516D01*
X38542Y-35516D01*
X38395Y-35577D01*
X38282Y-35690D01*
X38221Y-35837D01*
X38221Y-35996D01*
X38282Y-36143D01*
X38394Y-36256D01*
X38542Y-36317D01*
X38701Y-36317D01*
X38848Y-36257D01*
X38961Y-36144D01*
X39022Y-35997D01*
X39022Y-35838D01*
X39022Y-37450D01*
X39013Y-37450D01*
X39013Y-36980D01*
X39007Y-36826D01*
X38958Y-36709D01*
X38906Y-36674D01*
X38864Y-36716D01*
X38864Y-36632D01*
X38830Y-36580D01*
X38685Y-36526D01*
X38531Y-36531D01*
X38413Y-36580D01*
X38379Y-36632D01*
X38622Y-36875D01*
X38864Y-36632D01*
X38864Y-36716D01*
X38663Y-36917D01*
X38906Y-37160D01*
X38958Y-37125D01*
X39013Y-36980D01*
X39013Y-37450D01*
X38864Y-37450D01*
X38864Y-37201D01*
X38622Y-36959D01*
X38580Y-37000D01*
X38580Y-36917D01*
X38337Y-36674D01*
X38285Y-36709D01*
X38231Y-36853D01*
X38236Y-37008D01*
X38285Y-37125D01*
X38337Y-37160D01*
X38580Y-36917D01*
X38580Y-37000D01*
X38379Y-37201D01*
X38413Y-37254D01*
X38558Y-37308D01*
X38712Y-37302D01*
X38830Y-37254D01*
X38864Y-37201D01*
X38864Y-37450D01*
X38022Y-37450D01*
X38022Y-36838D01*
X38022Y-35838D01*
X37961Y-35690D01*
X37849Y-35578D01*
X37702Y-35516D01*
X37542Y-35516D01*
X37395Y-35577D01*
X37282Y-35690D01*
X37221Y-35837D01*
X37221Y-35996D01*
X37282Y-36143D01*
X37394Y-36256D01*
X37542Y-36317D01*
X37701Y-36317D01*
X37848Y-36257D01*
X37961Y-36144D01*
X38022Y-35997D01*
X38022Y-35838D01*
X38022Y-36838D01*
X37961Y-36690D01*
X37849Y-36578D01*
X37702Y-36516D01*
X37542Y-36516D01*
X37395Y-36577D01*
X37282Y-36690D01*
X37221Y-36837D01*
X37221Y-36996D01*
X37282Y-37143D01*
X37394Y-37256D01*
X37542Y-37317D01*
X37701Y-37317D01*
X37848Y-37257D01*
X37961Y-37144D01*
X38022Y-36997D01*
X38022Y-36838D01*
X38022Y-37450D01*
X37022Y-37450D01*
X37022Y-36838D01*
X37022Y-35838D01*
X36961Y-35690D01*
X36849Y-35578D01*
X36702Y-35516D01*
X36542Y-35516D01*
X36395Y-35577D01*
X36282Y-35690D01*
X36272Y-35715D01*
X36272Y-32637D01*
X36262Y-32587D01*
X36233Y-32545D01*
X36232Y-32544D01*
X36232Y-32478D01*
X36200Y-32401D01*
X36153Y-32354D01*
X36153Y-31257D01*
X36122Y-31181D01*
X36063Y-31122D01*
X35986Y-31090D01*
X35957Y-31090D01*
X35957Y-30470D01*
X35925Y-30393D01*
X35866Y-30334D01*
X35789Y-30302D01*
X35723Y-30302D01*
X34850Y-29430D01*
X34850Y-27808D01*
X34947Y-27768D01*
X35059Y-27656D01*
X35120Y-27509D01*
X35121Y-27349D01*
X35121Y-26349D01*
X35060Y-26202D01*
X34947Y-26089D01*
X34800Y-26028D01*
X34641Y-26028D01*
X34493Y-26089D01*
X34381Y-26201D01*
X34320Y-26349D01*
X34319Y-26508D01*
X34380Y-26655D01*
X34493Y-26768D01*
X34640Y-26829D01*
X34799Y-26829D01*
X34947Y-26768D01*
X35059Y-26656D01*
X35120Y-26509D01*
X35121Y-26349D01*
X35121Y-27349D01*
X35060Y-27202D01*
X34947Y-27089D01*
X34800Y-27028D01*
X34641Y-27028D01*
X34493Y-27089D01*
X34381Y-27201D01*
X34320Y-27349D01*
X34319Y-27508D01*
X34380Y-27655D01*
X34493Y-27768D01*
X34590Y-27808D01*
X34590Y-29484D01*
X34599Y-29534D01*
X34628Y-29576D01*
X35539Y-30487D01*
X35539Y-30553D01*
X35570Y-30630D01*
X35629Y-30688D01*
X35706Y-30720D01*
X35789Y-30720D01*
X35866Y-30689D01*
X35925Y-30630D01*
X35956Y-30553D01*
X35957Y-30470D01*
X35957Y-31090D01*
X35920Y-31090D01*
X34120Y-29290D01*
X34120Y-27709D01*
X34120Y-27109D01*
X34111Y-27086D01*
X34111Y-26492D01*
X34106Y-26338D01*
X34057Y-26220D01*
X34004Y-26186D01*
X33963Y-26228D01*
X33963Y-26144D01*
X33928Y-26092D01*
X33784Y-26038D01*
X33629Y-26043D01*
X33512Y-26092D01*
X33477Y-26144D01*
X33720Y-26387D01*
X33963Y-26144D01*
X33963Y-26228D01*
X33762Y-26429D01*
X34004Y-26671D01*
X34057Y-26637D01*
X34111Y-26492D01*
X34111Y-27086D01*
X34105Y-27072D01*
X34077Y-27044D01*
X34040Y-27028D01*
X34000Y-27028D01*
X33963Y-27028D01*
X33963Y-26713D01*
X33720Y-26470D01*
X33678Y-26512D01*
X33678Y-26429D01*
X33435Y-26186D01*
X33383Y-26220D01*
X33329Y-26365D01*
X33334Y-26520D01*
X33383Y-26637D01*
X33435Y-26671D01*
X33678Y-26429D01*
X33678Y-26512D01*
X33477Y-26713D01*
X33512Y-26766D01*
X33656Y-26820D01*
X33811Y-26814D01*
X33928Y-26766D01*
X33963Y-26713D01*
X33963Y-27028D01*
X33400Y-27028D01*
X33363Y-27043D01*
X33335Y-27072D01*
X33320Y-27109D01*
X33319Y-27149D01*
X33319Y-27749D01*
X33335Y-27785D01*
X33363Y-27814D01*
X33400Y-27829D01*
X33440Y-27829D01*
X34040Y-27829D01*
X34077Y-27814D01*
X34105Y-27786D01*
X34120Y-27749D01*
X34120Y-27709D01*
X34120Y-29290D01*
X32926Y-28096D01*
X32884Y-28068D01*
X32834Y-28058D01*
X31605Y-28058D01*
X31250Y-27704D01*
X31285Y-27619D01*
X31286Y-27467D01*
X31228Y-27328D01*
X31121Y-27220D01*
X30981Y-27162D01*
X30830Y-27162D01*
X30690Y-27220D01*
X30583Y-27327D01*
X30525Y-27467D01*
X30524Y-27618D01*
X30582Y-27758D01*
X30689Y-27865D01*
X30829Y-27923D01*
X30980Y-27923D01*
X31066Y-27888D01*
X31458Y-28281D01*
X31501Y-28309D01*
X31551Y-28319D01*
X32780Y-28319D01*
X33356Y-28895D01*
X33307Y-28885D01*
X31433Y-28885D01*
X31383Y-28895D01*
X31340Y-28923D01*
X31066Y-29198D01*
X30981Y-29162D01*
X30830Y-29162D01*
X30690Y-29220D01*
X30583Y-29327D01*
X30525Y-29467D01*
X30524Y-29618D01*
X30544Y-29665D01*
X29710Y-30498D01*
X29682Y-30540D01*
X29672Y-30590D01*
X29672Y-33051D01*
X29682Y-33101D01*
X29710Y-33143D01*
X30044Y-33477D01*
X30005Y-33573D01*
X30004Y-33732D01*
X30065Y-33880D01*
X30178Y-33992D01*
X30325Y-34053D01*
X30484Y-34054D01*
X30632Y-33993D01*
X30744Y-33880D01*
X30805Y-33733D01*
X30806Y-33574D01*
X30745Y-33426D01*
X30632Y-33314D01*
X30485Y-33253D01*
X30326Y-33253D01*
X30229Y-33292D01*
X29933Y-32997D01*
X29933Y-30644D01*
X30705Y-29872D01*
X30829Y-29923D01*
X30980Y-29923D01*
X31120Y-29866D01*
X31227Y-29759D01*
X31285Y-29619D01*
X31286Y-29467D01*
X31250Y-29382D01*
X31487Y-29146D01*
X33253Y-29146D01*
X35184Y-31077D01*
X35184Y-31143D01*
X35216Y-31220D01*
X35275Y-31279D01*
X35351Y-31311D01*
X35435Y-31311D01*
X35511Y-31279D01*
X35570Y-31220D01*
X35602Y-31144D01*
X35602Y-31141D01*
X35735Y-31274D01*
X35735Y-31340D01*
X35767Y-31417D01*
X35826Y-31476D01*
X35903Y-31508D01*
X35986Y-31508D01*
X36063Y-31476D01*
X36121Y-31417D01*
X36153Y-31340D01*
X36153Y-31257D01*
X36153Y-32354D01*
X36142Y-32342D01*
X36065Y-32310D01*
X35982Y-32310D01*
X35905Y-32342D01*
X35846Y-32401D01*
X35814Y-32477D01*
X35814Y-32561D01*
X35846Y-32637D01*
X35905Y-32696D01*
X35981Y-32728D01*
X36011Y-32728D01*
X36011Y-35810D01*
X35961Y-35690D01*
X35849Y-35578D01*
X35720Y-35524D01*
X35720Y-31809D01*
X35689Y-31732D01*
X35630Y-31673D01*
X35553Y-31641D01*
X35470Y-31641D01*
X35393Y-31673D01*
X35334Y-31731D01*
X35302Y-31808D01*
X35302Y-31874D01*
X34276Y-32901D01*
X33070Y-32901D01*
X33020Y-32910D01*
X32978Y-32939D01*
X31875Y-34042D01*
X31512Y-34042D01*
X31632Y-33993D01*
X31744Y-33880D01*
X31805Y-33733D01*
X31806Y-33574D01*
X31766Y-33477D01*
X32554Y-32689D01*
X33188Y-32689D01*
X33238Y-32679D01*
X33281Y-32651D01*
X33991Y-31941D01*
X34057Y-31941D01*
X34133Y-31909D01*
X34192Y-31850D01*
X34224Y-31774D01*
X34224Y-31690D01*
X34192Y-31614D01*
X34134Y-31555D01*
X34067Y-31527D01*
X34067Y-30903D01*
X34035Y-30826D01*
X33976Y-30767D01*
X33900Y-30735D01*
X33816Y-30735D01*
X33740Y-30767D01*
X33681Y-30826D01*
X33649Y-30903D01*
X33649Y-30969D01*
X33410Y-31208D01*
X31720Y-31208D01*
X31670Y-31218D01*
X31628Y-31246D01*
X31628Y-31246D01*
X31628Y-31246D01*
X31581Y-31293D01*
X31485Y-31253D01*
X31326Y-31253D01*
X31178Y-31313D01*
X31066Y-31426D01*
X31005Y-31573D01*
X31004Y-31732D01*
X31065Y-31880D01*
X31178Y-31992D01*
X31209Y-32005D01*
X30792Y-32005D01*
X30805Y-31973D01*
X30805Y-31933D01*
X30805Y-31333D01*
X30790Y-31296D01*
X30762Y-31268D01*
X30725Y-31253D01*
X30685Y-31253D01*
X30085Y-31253D01*
X30048Y-31268D01*
X30020Y-31296D01*
X30005Y-31333D01*
X30005Y-31373D01*
X30005Y-31973D01*
X30020Y-32010D01*
X30048Y-32038D01*
X30085Y-32053D01*
X30125Y-32054D01*
X30293Y-32054D01*
X30496Y-32257D01*
X30485Y-32253D01*
X30326Y-32253D01*
X30178Y-32313D01*
X30066Y-32426D01*
X30005Y-32573D01*
X30004Y-32732D01*
X30065Y-32880D01*
X30178Y-32992D01*
X30325Y-33053D01*
X30484Y-33054D01*
X30632Y-32993D01*
X30744Y-32880D01*
X30805Y-32733D01*
X30806Y-32574D01*
X30745Y-32426D01*
X30643Y-32324D01*
X30748Y-32324D01*
X31167Y-32324D01*
X31066Y-32426D01*
X31005Y-32573D01*
X31004Y-32732D01*
X31065Y-32880D01*
X31178Y-32992D01*
X31325Y-33053D01*
X31484Y-33054D01*
X31632Y-32993D01*
X31744Y-32880D01*
X31805Y-32733D01*
X31806Y-32574D01*
X31745Y-32426D01*
X31643Y-32324D01*
X32698Y-32324D01*
X32755Y-32381D01*
X32832Y-32413D01*
X32915Y-32413D01*
X32992Y-32381D01*
X33051Y-32323D01*
X33082Y-32246D01*
X33083Y-32163D01*
X33051Y-32086D01*
X32992Y-32027D01*
X32915Y-31995D01*
X32832Y-31995D01*
X32808Y-32005D01*
X31601Y-32005D01*
X31632Y-31993D01*
X31744Y-31880D01*
X31805Y-31733D01*
X31806Y-31574D01*
X31766Y-31477D01*
X31774Y-31469D01*
X33464Y-31469D01*
X33514Y-31459D01*
X33556Y-31430D01*
X33833Y-31153D01*
X33899Y-31153D01*
X33976Y-31122D01*
X34035Y-31063D01*
X34067Y-30986D01*
X34067Y-30903D01*
X34067Y-31527D01*
X34057Y-31523D01*
X33974Y-31523D01*
X33897Y-31555D01*
X33838Y-31613D01*
X33806Y-31690D01*
X33806Y-31756D01*
X33134Y-32428D01*
X32500Y-32428D01*
X32450Y-32438D01*
X32407Y-32466D01*
X32407Y-32466D01*
X31581Y-33293D01*
X31485Y-33253D01*
X31326Y-33253D01*
X31178Y-33313D01*
X31066Y-33426D01*
X31005Y-33573D01*
X31004Y-33732D01*
X31065Y-33880D01*
X31178Y-33992D01*
X31298Y-34042D01*
X30866Y-34042D01*
X30816Y-34052D01*
X30773Y-34080D01*
X30773Y-34080D01*
X30773Y-34080D01*
X30567Y-34287D01*
X30485Y-34253D01*
X30326Y-34253D01*
X30178Y-34313D01*
X30066Y-34426D01*
X30005Y-34573D01*
X30004Y-34732D01*
X30065Y-34880D01*
X30178Y-34992D01*
X30325Y-35053D01*
X30484Y-35054D01*
X30632Y-34993D01*
X30744Y-34880D01*
X30805Y-34733D01*
X30806Y-34574D01*
X30760Y-34463D01*
X30920Y-34303D01*
X31228Y-34303D01*
X31197Y-34316D01*
X31162Y-34369D01*
X31405Y-34611D01*
X31648Y-34369D01*
X31613Y-34316D01*
X31579Y-34303D01*
X31929Y-34303D01*
X31979Y-34293D01*
X32021Y-34265D01*
X33124Y-33161D01*
X34330Y-33161D01*
X34380Y-33152D01*
X34422Y-33123D01*
X35487Y-32059D01*
X35553Y-32059D01*
X35630Y-32027D01*
X35688Y-31968D01*
X35720Y-31892D01*
X35720Y-31809D01*
X35720Y-35524D01*
X35702Y-35516D01*
X35542Y-35516D01*
X35395Y-35577D01*
X35282Y-35690D01*
X35221Y-35837D01*
X35221Y-35996D01*
X35282Y-36143D01*
X35394Y-36256D01*
X35542Y-36317D01*
X35701Y-36317D01*
X35848Y-36257D01*
X35961Y-36144D01*
X36011Y-36024D01*
X36011Y-36343D01*
X35798Y-36556D01*
X35702Y-36516D01*
X35542Y-36516D01*
X35395Y-36577D01*
X35282Y-36690D01*
X35221Y-36837D01*
X35221Y-36996D01*
X35282Y-37143D01*
X35394Y-37256D01*
X35542Y-37317D01*
X35701Y-37317D01*
X35848Y-37257D01*
X35961Y-37144D01*
X36022Y-36997D01*
X36022Y-36838D01*
X35982Y-36741D01*
X36233Y-36489D01*
X36233Y-36489D01*
X36233Y-36489D01*
X36262Y-36447D01*
X36262Y-36447D01*
X36272Y-36397D01*
X36272Y-36397D01*
X36272Y-36119D01*
X36282Y-36143D01*
X36394Y-36256D01*
X36542Y-36317D01*
X36701Y-36317D01*
X36848Y-36257D01*
X36961Y-36144D01*
X37022Y-35997D01*
X37022Y-35838D01*
X37022Y-36838D01*
X36961Y-36690D01*
X36849Y-36578D01*
X36702Y-36516D01*
X36542Y-36516D01*
X36395Y-36577D01*
X36282Y-36690D01*
X36221Y-36837D01*
X36221Y-36996D01*
X36282Y-37143D01*
X36394Y-37256D01*
X36542Y-37317D01*
X36701Y-37317D01*
X36848Y-37257D01*
X36961Y-37144D01*
X37022Y-36997D01*
X37022Y-36838D01*
X37022Y-37450D01*
X35022Y-37450D01*
X35022Y-36838D01*
X35022Y-35838D01*
X34961Y-35690D01*
X34849Y-35578D01*
X34702Y-35516D01*
X34542Y-35516D01*
X34395Y-35577D01*
X34282Y-35690D01*
X34221Y-35837D01*
X34221Y-35996D01*
X34282Y-36143D01*
X34394Y-36256D01*
X34542Y-36317D01*
X34701Y-36317D01*
X34848Y-36257D01*
X34961Y-36144D01*
X35022Y-35997D01*
X35022Y-35838D01*
X35022Y-36838D01*
X34961Y-36690D01*
X34849Y-36578D01*
X34702Y-36516D01*
X34542Y-36516D01*
X34395Y-36577D01*
X34282Y-36690D01*
X34221Y-36837D01*
X34221Y-36996D01*
X34282Y-37143D01*
X34394Y-37256D01*
X34542Y-37317D01*
X34701Y-37317D01*
X34848Y-37257D01*
X34961Y-37144D01*
X35022Y-36997D01*
X35022Y-36838D01*
X35022Y-37450D01*
X34022Y-37450D01*
X34022Y-35838D01*
X33961Y-35690D01*
X33849Y-35578D01*
X33702Y-35516D01*
X33542Y-35516D01*
X33395Y-35577D01*
X33282Y-35690D01*
X33221Y-35837D01*
X33221Y-35996D01*
X33282Y-36143D01*
X33394Y-36256D01*
X33542Y-36317D01*
X33701Y-36317D01*
X33848Y-36257D01*
X33961Y-36144D01*
X34022Y-35997D01*
X34022Y-35838D01*
X34022Y-37450D01*
X34022Y-37450D01*
X34022Y-37197D01*
X34022Y-36597D01*
X34007Y-36560D01*
X33979Y-36532D01*
X33942Y-36516D01*
X33902Y-36516D01*
X33302Y-36516D01*
X33265Y-36532D01*
X33236Y-36560D01*
X33221Y-36597D01*
X33221Y-36637D01*
X33221Y-37237D01*
X33236Y-37274D01*
X33265Y-37302D01*
X33301Y-37317D01*
X33341Y-37317D01*
X33941Y-37317D01*
X33978Y-37302D01*
X34007Y-37274D01*
X34022Y-37237D01*
X34022Y-37197D01*
X34022Y-37450D01*
X31806Y-37450D01*
X31806Y-36574D01*
X31806Y-35574D01*
X31796Y-35551D01*
X31796Y-34717D01*
X31791Y-34562D01*
X31742Y-34445D01*
X31689Y-34410D01*
X31447Y-34653D01*
X31689Y-34896D01*
X31742Y-34861D01*
X31796Y-34717D01*
X31796Y-35551D01*
X31745Y-35426D01*
X31648Y-35329D01*
X31648Y-34938D01*
X31405Y-34695D01*
X31363Y-34736D01*
X31363Y-34653D01*
X31121Y-34410D01*
X31068Y-34445D01*
X31014Y-34590D01*
X31019Y-34744D01*
X31068Y-34861D01*
X31121Y-34896D01*
X31363Y-34653D01*
X31363Y-34736D01*
X31162Y-34938D01*
X31197Y-34990D01*
X31341Y-35044D01*
X31496Y-35039D01*
X31613Y-34990D01*
X31648Y-34938D01*
X31648Y-35329D01*
X31632Y-35314D01*
X31485Y-35253D01*
X31326Y-35253D01*
X31178Y-35313D01*
X31066Y-35426D01*
X31005Y-35573D01*
X31004Y-35732D01*
X31065Y-35880D01*
X31178Y-35992D01*
X31325Y-36053D01*
X31484Y-36054D01*
X31632Y-35993D01*
X31744Y-35880D01*
X31805Y-35733D01*
X31806Y-35574D01*
X31806Y-36574D01*
X31745Y-36426D01*
X31632Y-36314D01*
X31485Y-36253D01*
X31326Y-36253D01*
X31178Y-36313D01*
X31066Y-36426D01*
X31005Y-36573D01*
X31004Y-36732D01*
X31065Y-36880D01*
X31178Y-36992D01*
X31325Y-37053D01*
X31484Y-37054D01*
X31632Y-36993D01*
X31744Y-36880D01*
X31805Y-36733D01*
X31806Y-36574D01*
X31806Y-37450D01*
X30806Y-37450D01*
X30806Y-36574D01*
X30806Y-35574D01*
X30745Y-35426D01*
X30632Y-35314D01*
X30485Y-35253D01*
X30326Y-35253D01*
X30178Y-35313D01*
X30066Y-35426D01*
X30005Y-35573D01*
X30004Y-35732D01*
X30065Y-35880D01*
X30178Y-35992D01*
X30325Y-36053D01*
X30484Y-36054D01*
X30632Y-35993D01*
X30744Y-35880D01*
X30805Y-35733D01*
X30806Y-35574D01*
X30806Y-36574D01*
X30745Y-36426D01*
X30632Y-36314D01*
X30485Y-36253D01*
X30326Y-36253D01*
X30178Y-36313D01*
X30066Y-36426D01*
X30005Y-36573D01*
X30004Y-36732D01*
X30065Y-36880D01*
X30178Y-36992D01*
X30325Y-37053D01*
X30484Y-37054D01*
X30632Y-36993D01*
X30744Y-36880D01*
X30805Y-36733D01*
X30806Y-36574D01*
X30806Y-37450D01*
X29647Y-37450D01*
X29647Y-25868D01*
X42175Y-25868D01*
X42175Y-37450D01*
M02*
